<?xml version="1.0" encoding="utf-8" standalone="no"?>
<!DOCTYPE svg PUBLIC "-//W3C//DTD SVG 1.1//EN"
  "http://www.w3.org/Graphics/SVG/1.1/DTD/svg11.dtd">
<!-- Created with matplotlib (https://matplotlib.org/) -->
<svg height="345.6pt" version="1.1" viewBox="0 0 460.8 345.6" width="460.8pt" xmlns="http://www.w3.org/2000/svg" xmlns:xlink="http://www.w3.org/1999/xlink">
 <defs>
  <style type="text/css">
*{stroke-linecap:butt;stroke-linejoin:round;}
  </style>
 </defs>
 <g id="figure_1">
  <g id="patch_1">
   <path d="M 0 345.6 
L 460.8 345.6 
L 460.8 0 
L 0 0 
z
" style="fill:#ffffff;"/>
  </g>
  <g id="axes_1">
   <g id="patch_2">
    <path d="M 46.64 286.36 
L 213.094199 286.36 
L 213.094199 56.0256 
L 46.64 56.0256 
z
" style="fill:#ffffff;"/>
   </g>
   <g id="matplotlib.axis_1">
    <g id="xtick_1">
     <g id="line2d_1">
      <path clip-path="url(#p9847dcfc08)" d="M 54.2061 286.36 
L 54.2061 56.0256 
" style="fill:none;stroke:#b0b0b0;stroke-linecap:square;stroke-width:0.8;"/>
     </g>
     <g id="line2d_2">
      <defs>
       <path d="M 0 0 
L 0 3.5 
" id="m30bd63cf6c" style="stroke:#000000;stroke-width:0.8;"/>
      </defs>
      <g>
       <use style="stroke:#000000;stroke-width:0.8;" x="54.2061" xlink:href="#m30bd63cf6c" y="286.36"/>
      </g>
     </g>
     <g id="text_1">
      <!-- 0.0 -->
      <defs>
       <path d="M 31.78125 66.40625 
Q 24.171875 66.40625 20.328125 58.90625 
Q 16.5 51.421875 16.5 36.375 
Q 16.5 21.390625 20.328125 13.890625 
Q 24.171875 6.390625 31.78125 6.390625 
Q 39.453125 6.390625 43.28125 13.890625 
Q 47.125 21.390625 47.125 36.375 
Q 47.125 51.421875 43.28125 58.90625 
Q 39.453125 66.40625 31.78125 66.40625 
z
M 31.78125 74.21875 
Q 44.046875 74.21875 50.515625 64.515625 
Q 56.984375 54.828125 56.984375 36.375 
Q 56.984375 17.96875 50.515625 8.265625 
Q 44.046875 -1.421875 31.78125 -1.421875 
Q 19.53125 -1.421875 13.0625 8.265625 
Q 6.59375 17.96875 6.59375 36.375 
Q 6.59375 54.828125 13.0625 64.515625 
Q 19.53125 74.21875 31.78125 74.21875 
z
" id="DejaVuSans-48"/>
       <path d="M 10.6875 12.40625 
L 21 12.40625 
L 21 0 
L 10.6875 0 
z
" id="DejaVuSans-46"/>
      </defs>
      <g transform="translate(46.254537 300.958437)scale(0.1 -0.1)">
       <use xlink:href="#DejaVuSans-48"/>
       <use x="63.623047" xlink:href="#DejaVuSans-46"/>
       <use x="95.410156" xlink:href="#DejaVuSans-48"/>
      </g>
     </g>
    </g>
    <g id="xtick_2">
     <g id="line2d_3">
      <path clip-path="url(#p9847dcfc08)" d="M 92.0366 286.36 
L 92.0366 56.0256 
" style="fill:none;stroke:#b0b0b0;stroke-linecap:square;stroke-width:0.8;"/>
     </g>
     <g id="line2d_4">
      <g>
       <use style="stroke:#000000;stroke-width:0.8;" x="92.0366" xlink:href="#m30bd63cf6c" y="286.36"/>
      </g>
     </g>
     <g id="text_2">
      <!-- 2.5 -->
      <defs>
       <path d="M 19.1875 8.296875 
L 53.609375 8.296875 
L 53.609375 0 
L 7.328125 0 
L 7.328125 8.296875 
Q 12.9375 14.109375 22.625 23.890625 
Q 32.328125 33.6875 34.8125 36.53125 
Q 39.546875 41.84375 41.421875 45.53125 
Q 43.3125 49.21875 43.3125 52.78125 
Q 43.3125 58.59375 39.234375 62.25 
Q 35.15625 65.921875 28.609375 65.921875 
Q 23.96875 65.921875 18.8125 64.3125 
Q 13.671875 62.703125 7.8125 59.421875 
L 7.8125 69.390625 
Q 13.765625 71.78125 18.9375 73 
Q 24.125 74.21875 28.421875 74.21875 
Q 39.75 74.21875 46.484375 68.546875 
Q 53.21875 62.890625 53.21875 53.421875 
Q 53.21875 48.921875 51.53125 44.890625 
Q 49.859375 40.875 45.40625 35.40625 
Q 44.1875 33.984375 37.640625 27.21875 
Q 31.109375 20.453125 19.1875 8.296875 
z
" id="DejaVuSans-50"/>
       <path d="M 10.796875 72.90625 
L 49.515625 72.90625 
L 49.515625 64.59375 
L 19.828125 64.59375 
L 19.828125 46.734375 
Q 21.96875 47.46875 24.109375 47.828125 
Q 26.265625 48.1875 28.421875 48.1875 
Q 40.625 48.1875 47.75 41.5 
Q 54.890625 34.8125 54.890625 23.390625 
Q 54.890625 11.625 47.5625 5.09375 
Q 40.234375 -1.421875 26.90625 -1.421875 
Q 22.3125 -1.421875 17.546875 -0.640625 
Q 12.796875 0.140625 7.71875 1.703125 
L 7.71875 11.625 
Q 12.109375 9.234375 16.796875 8.0625 
Q 21.484375 6.890625 26.703125 6.890625 
Q 35.15625 6.890625 40.078125 11.328125 
Q 45.015625 15.765625 45.015625 23.390625 
Q 45.015625 31 40.078125 35.4375 
Q 35.15625 39.890625 26.703125 39.890625 
Q 22.75 39.890625 18.8125 39.015625 
Q 14.890625 38.140625 10.796875 36.28125 
z
" id="DejaVuSans-53"/>
      </defs>
      <g transform="translate(84.085037 300.958437)scale(0.1 -0.1)">
       <use xlink:href="#DejaVuSans-50"/>
       <use x="63.623047" xlink:href="#DejaVuSans-46"/>
       <use x="95.410156" xlink:href="#DejaVuSans-53"/>
      </g>
     </g>
    </g>
    <g id="xtick_3">
     <g id="line2d_5">
      <path clip-path="url(#p9847dcfc08)" d="M 129.8671 286.36 
L 129.8671 56.0256 
" style="fill:none;stroke:#b0b0b0;stroke-linecap:square;stroke-width:0.8;"/>
     </g>
     <g id="line2d_6">
      <g>
       <use style="stroke:#000000;stroke-width:0.8;" x="129.8671" xlink:href="#m30bd63cf6c" y="286.36"/>
      </g>
     </g>
     <g id="text_3">
      <!-- 5.0 -->
      <g transform="translate(121.915537 300.958437)scale(0.1 -0.1)">
       <use xlink:href="#DejaVuSans-53"/>
       <use x="63.623047" xlink:href="#DejaVuSans-46"/>
       <use x="95.410156" xlink:href="#DejaVuSans-48"/>
      </g>
     </g>
    </g>
    <g id="xtick_4">
     <g id="line2d_7">
      <path clip-path="url(#p9847dcfc08)" d="M 167.6976 286.36 
L 167.6976 56.0256 
" style="fill:none;stroke:#b0b0b0;stroke-linecap:square;stroke-width:0.8;"/>
     </g>
     <g id="line2d_8">
      <g>
       <use style="stroke:#000000;stroke-width:0.8;" x="167.6976" xlink:href="#m30bd63cf6c" y="286.36"/>
      </g>
     </g>
     <g id="text_4">
      <!-- 7.5 -->
      <defs>
       <path d="M 8.203125 72.90625 
L 55.078125 72.90625 
L 55.078125 68.703125 
L 28.609375 0 
L 18.3125 0 
L 43.21875 64.59375 
L 8.203125 64.59375 
z
" id="DejaVuSans-55"/>
      </defs>
      <g transform="translate(159.746037 300.958437)scale(0.1 -0.1)">
       <use xlink:href="#DejaVuSans-55"/>
       <use x="63.623047" xlink:href="#DejaVuSans-46"/>
       <use x="95.410156" xlink:href="#DejaVuSans-53"/>
      </g>
     </g>
    </g>
    <g id="xtick_5">
     <g id="line2d_9">
      <path clip-path="url(#p9847dcfc08)" d="M 205.528099 286.36 
L 205.528099 56.0256 
" style="fill:none;stroke:#b0b0b0;stroke-linecap:square;stroke-width:0.8;"/>
     </g>
     <g id="line2d_10">
      <g>
       <use style="stroke:#000000;stroke-width:0.8;" x="205.528099" xlink:href="#m30bd63cf6c" y="286.36"/>
      </g>
     </g>
     <g id="text_5">
      <!-- 10.0 -->
      <defs>
       <path d="M 12.40625 8.296875 
L 28.515625 8.296875 
L 28.515625 63.921875 
L 10.984375 60.40625 
L 10.984375 69.390625 
L 28.421875 72.90625 
L 38.28125 72.90625 
L 38.28125 8.296875 
L 54.390625 8.296875 
L 54.390625 0 
L 12.40625 0 
z
" id="DejaVuSans-49"/>
      </defs>
      <g transform="translate(194.395287 300.958437)scale(0.1 -0.1)">
       <use xlink:href="#DejaVuSans-49"/>
       <use x="63.623047" xlink:href="#DejaVuSans-48"/>
       <use x="127.246094" xlink:href="#DejaVuSans-46"/>
       <use x="159.033203" xlink:href="#DejaVuSans-48"/>
      </g>
     </g>
    </g>
    <g id="text_6">
     <!-- M -->
     <defs>
      <path d="M 9.8125 72.90625 
L 24.515625 72.90625 
L 43.109375 23.296875 
L 61.8125 72.90625 
L 76.515625 72.90625 
L 76.515625 0 
L 66.890625 0 
L 66.890625 64.015625 
L 48.09375 14.015625 
L 38.1875 14.015625 
L 19.390625 64.015625 
L 19.390625 0 
L 9.8125 0 
z
" id="DejaVuSans-77"/>
     </defs>
     <g transform="translate(125.553037 314.636562)scale(0.1 -0.1)">
      <use xlink:href="#DejaVuSans-77"/>
     </g>
    </g>
   </g>
   <g id="matplotlib.axis_2">
    <g id="ytick_1">
     <g id="line2d_11">
      <path clip-path="url(#p9847dcfc08)" d="M 46.64 255.128401 
L 213.094199 255.128401 
" style="fill:none;stroke:#b0b0b0;stroke-linecap:square;stroke-width:0.8;"/>
     </g>
     <g id="line2d_12">
      <defs>
       <path d="M 0 0 
L -3.5 0 
" id="m18d2475a3b" style="stroke:#000000;stroke-width:0.8;"/>
      </defs>
      <g>
       <use style="stroke:#000000;stroke-width:0.8;" x="46.64" xlink:href="#m18d2475a3b" y="255.128401"/>
      </g>
     </g>
     <g id="text_7">
      <!-- −5 -->
      <defs>
       <path d="M 10.59375 35.5 
L 73.1875 35.5 
L 73.1875 27.203125 
L 10.59375 27.203125 
z
" id="DejaVuSans-8722"/>
      </defs>
      <g transform="translate(24.897813 258.927619)scale(0.1 -0.1)">
       <use xlink:href="#DejaVuSans-8722"/>
       <use x="83.789062" xlink:href="#DejaVuSans-53"/>
      </g>
     </g>
    </g>
    <g id="ytick_2">
     <g id="line2d_13">
      <path clip-path="url(#p9847dcfc08)" d="M 46.64 217.40179 
L 213.094199 217.40179 
" style="fill:none;stroke:#b0b0b0;stroke-linecap:square;stroke-width:0.8;"/>
     </g>
     <g id="line2d_14">
      <g>
       <use style="stroke:#000000;stroke-width:0.8;" x="46.64" xlink:href="#m18d2475a3b" y="217.40179"/>
      </g>
     </g>
     <g id="text_8">
      <!-- −4 -->
      <defs>
       <path d="M 37.796875 64.3125 
L 12.890625 25.390625 
L 37.796875 25.390625 
z
M 35.203125 72.90625 
L 47.609375 72.90625 
L 47.609375 25.390625 
L 58.015625 25.390625 
L 58.015625 17.1875 
L 47.609375 17.1875 
L 47.609375 0 
L 37.796875 0 
L 37.796875 17.1875 
L 4.890625 17.1875 
L 4.890625 26.703125 
z
" id="DejaVuSans-52"/>
      </defs>
      <g transform="translate(24.897813 221.201008)scale(0.1 -0.1)">
       <use xlink:href="#DejaVuSans-8722"/>
       <use x="83.789062" xlink:href="#DejaVuSans-52"/>
      </g>
     </g>
    </g>
    <g id="ytick_3">
     <g id="line2d_15">
      <path clip-path="url(#p9847dcfc08)" d="M 46.64 179.675179 
L 213.094199 179.675179 
" style="fill:none;stroke:#b0b0b0;stroke-linecap:square;stroke-width:0.8;"/>
     </g>
     <g id="line2d_16">
      <g>
       <use style="stroke:#000000;stroke-width:0.8;" x="46.64" xlink:href="#m18d2475a3b" y="179.675179"/>
      </g>
     </g>
     <g id="text_9">
      <!-- −3 -->
      <defs>
       <path d="M 40.578125 39.3125 
Q 47.65625 37.796875 51.625 33 
Q 55.609375 28.21875 55.609375 21.1875 
Q 55.609375 10.40625 48.1875 4.484375 
Q 40.765625 -1.421875 27.09375 -1.421875 
Q 22.515625 -1.421875 17.65625 -0.515625 
Q 12.796875 0.390625 7.625 2.203125 
L 7.625 11.71875 
Q 11.71875 9.328125 16.59375 8.109375 
Q 21.484375 6.890625 26.8125 6.890625 
Q 36.078125 6.890625 40.9375 10.546875 
Q 45.796875 14.203125 45.796875 21.1875 
Q 45.796875 27.640625 41.28125 31.265625 
Q 36.765625 34.90625 28.71875 34.90625 
L 20.21875 34.90625 
L 20.21875 43.015625 
L 29.109375 43.015625 
Q 36.375 43.015625 40.234375 45.921875 
Q 44.09375 48.828125 44.09375 54.296875 
Q 44.09375 59.90625 40.109375 62.90625 
Q 36.140625 65.921875 28.71875 65.921875 
Q 24.65625 65.921875 20.015625 65.03125 
Q 15.375 64.15625 9.8125 62.3125 
L 9.8125 71.09375 
Q 15.4375 72.65625 20.34375 73.4375 
Q 25.25 74.21875 29.59375 74.21875 
Q 40.828125 74.21875 47.359375 69.109375 
Q 53.90625 64.015625 53.90625 55.328125 
Q 53.90625 49.265625 50.4375 45.09375 
Q 46.96875 40.921875 40.578125 39.3125 
z
" id="DejaVuSans-51"/>
      </defs>
      <g transform="translate(24.897813 183.474397)scale(0.1 -0.1)">
       <use xlink:href="#DejaVuSans-8722"/>
       <use x="83.789062" xlink:href="#DejaVuSans-51"/>
      </g>
     </g>
    </g>
    <g id="ytick_4">
     <g id="line2d_17">
      <path clip-path="url(#p9847dcfc08)" d="M 46.64 141.948568 
L 213.094199 141.948568 
" style="fill:none;stroke:#b0b0b0;stroke-linecap:square;stroke-width:0.8;"/>
     </g>
     <g id="line2d_18">
      <g>
       <use style="stroke:#000000;stroke-width:0.8;" x="46.64" xlink:href="#m18d2475a3b" y="141.948568"/>
      </g>
     </g>
     <g id="text_10">
      <!-- −2 -->
      <g transform="translate(24.897813 145.747786)scale(0.1 -0.1)">
       <use xlink:href="#DejaVuSans-8722"/>
       <use x="83.789062" xlink:href="#DejaVuSans-50"/>
      </g>
     </g>
    </g>
    <g id="ytick_5">
     <g id="line2d_19">
      <path clip-path="url(#p9847dcfc08)" d="M 46.64 104.221957 
L 213.094199 104.221957 
" style="fill:none;stroke:#b0b0b0;stroke-linecap:square;stroke-width:0.8;"/>
     </g>
     <g id="line2d_20">
      <g>
       <use style="stroke:#000000;stroke-width:0.8;" x="46.64" xlink:href="#m18d2475a3b" y="104.221957"/>
      </g>
     </g>
     <g id="text_11">
      <!-- −1 -->
      <g transform="translate(24.897813 108.021175)scale(0.1 -0.1)">
       <use xlink:href="#DejaVuSans-8722"/>
       <use x="83.789062" xlink:href="#DejaVuSans-49"/>
      </g>
     </g>
    </g>
    <g id="ytick_6">
     <g id="line2d_21">
      <path clip-path="url(#p9847dcfc08)" d="M 46.64 66.495345 
L 213.094199 66.495345 
" style="fill:none;stroke:#b0b0b0;stroke-linecap:square;stroke-width:0.8;"/>
     </g>
     <g id="line2d_22">
      <g>
       <use style="stroke:#000000;stroke-width:0.8;" x="46.64" xlink:href="#m18d2475a3b" y="66.495345"/>
      </g>
     </g>
     <g id="text_12">
      <!-- 0 -->
      <g transform="translate(33.2775 70.294564)scale(0.1 -0.1)">
       <use xlink:href="#DejaVuSans-48"/>
      </g>
     </g>
    </g>
    <g id="text_13">
     <!-- Model C - Analytical C -->
     <defs>
      <path d="M 30.609375 48.390625 
Q 23.390625 48.390625 19.1875 42.75 
Q 14.984375 37.109375 14.984375 27.296875 
Q 14.984375 17.484375 19.15625 11.84375 
Q 23.34375 6.203125 30.609375 6.203125 
Q 37.796875 6.203125 41.984375 11.859375 
Q 46.1875 17.53125 46.1875 27.296875 
Q 46.1875 37.015625 41.984375 42.703125 
Q 37.796875 48.390625 30.609375 48.390625 
z
M 30.609375 56 
Q 42.328125 56 49.015625 48.375 
Q 55.71875 40.765625 55.71875 27.296875 
Q 55.71875 13.875 49.015625 6.21875 
Q 42.328125 -1.421875 30.609375 -1.421875 
Q 18.84375 -1.421875 12.171875 6.21875 
Q 5.515625 13.875 5.515625 27.296875 
Q 5.515625 40.765625 12.171875 48.375 
Q 18.84375 56 30.609375 56 
z
" id="DejaVuSans-111"/>
      <path d="M 45.40625 46.390625 
L 45.40625 75.984375 
L 54.390625 75.984375 
L 54.390625 0 
L 45.40625 0 
L 45.40625 8.203125 
Q 42.578125 3.328125 38.25 0.953125 
Q 33.9375 -1.421875 27.875 -1.421875 
Q 17.96875 -1.421875 11.734375 6.484375 
Q 5.515625 14.40625 5.515625 27.296875 
Q 5.515625 40.1875 11.734375 48.09375 
Q 17.96875 56 27.875 56 
Q 33.9375 56 38.25 53.625 
Q 42.578125 51.265625 45.40625 46.390625 
z
M 14.796875 27.296875 
Q 14.796875 17.390625 18.875 11.75 
Q 22.953125 6.109375 30.078125 6.109375 
Q 37.203125 6.109375 41.296875 11.75 
Q 45.40625 17.390625 45.40625 27.296875 
Q 45.40625 37.203125 41.296875 42.84375 
Q 37.203125 48.484375 30.078125 48.484375 
Q 22.953125 48.484375 18.875 42.84375 
Q 14.796875 37.203125 14.796875 27.296875 
z
" id="DejaVuSans-100"/>
      <path d="M 56.203125 29.59375 
L 56.203125 25.203125 
L 14.890625 25.203125 
Q 15.484375 15.921875 20.484375 11.0625 
Q 25.484375 6.203125 34.421875 6.203125 
Q 39.59375 6.203125 44.453125 7.46875 
Q 49.3125 8.734375 54.109375 11.28125 
L 54.109375 2.78125 
Q 49.265625 0.734375 44.1875 -0.34375 
Q 39.109375 -1.421875 33.890625 -1.421875 
Q 20.796875 -1.421875 13.15625 6.1875 
Q 5.515625 13.8125 5.515625 26.8125 
Q 5.515625 40.234375 12.765625 48.109375 
Q 20.015625 56 32.328125 56 
Q 43.359375 56 49.78125 48.890625 
Q 56.203125 41.796875 56.203125 29.59375 
z
M 47.21875 32.234375 
Q 47.125 39.59375 43.09375 43.984375 
Q 39.0625 48.390625 32.421875 48.390625 
Q 24.90625 48.390625 20.390625 44.140625 
Q 15.875 39.890625 15.1875 32.171875 
z
" id="DejaVuSans-101"/>
      <path d="M 9.421875 75.984375 
L 18.40625 75.984375 
L 18.40625 0 
L 9.421875 0 
z
" id="DejaVuSans-108"/>
      <path id="DejaVuSans-32"/>
      <path d="M 64.40625 67.28125 
L 64.40625 56.890625 
Q 59.421875 61.53125 53.78125 63.8125 
Q 48.140625 66.109375 41.796875 66.109375 
Q 29.296875 66.109375 22.65625 58.46875 
Q 16.015625 50.828125 16.015625 36.375 
Q 16.015625 21.96875 22.65625 14.328125 
Q 29.296875 6.6875 41.796875 6.6875 
Q 48.140625 6.6875 53.78125 8.984375 
Q 59.421875 11.28125 64.40625 15.921875 
L 64.40625 5.609375 
Q 59.234375 2.09375 53.4375 0.328125 
Q 47.65625 -1.421875 41.21875 -1.421875 
Q 24.65625 -1.421875 15.125 8.703125 
Q 5.609375 18.84375 5.609375 36.375 
Q 5.609375 53.953125 15.125 64.078125 
Q 24.65625 74.21875 41.21875 74.21875 
Q 47.75 74.21875 53.53125 72.484375 
Q 59.328125 70.75 64.40625 67.28125 
z
" id="DejaVuSans-67"/>
      <path d="M 4.890625 31.390625 
L 31.203125 31.390625 
L 31.203125 23.390625 
L 4.890625 23.390625 
z
" id="DejaVuSans-45"/>
      <path d="M 34.1875 63.1875 
L 20.796875 26.90625 
L 47.609375 26.90625 
z
M 28.609375 72.90625 
L 39.796875 72.90625 
L 67.578125 0 
L 57.328125 0 
L 50.6875 18.703125 
L 17.828125 18.703125 
L 11.1875 0 
L 0.78125 0 
z
" id="DejaVuSans-65"/>
      <path d="M 54.890625 33.015625 
L 54.890625 0 
L 45.90625 0 
L 45.90625 32.71875 
Q 45.90625 40.484375 42.875 44.328125 
Q 39.84375 48.1875 33.796875 48.1875 
Q 26.515625 48.1875 22.3125 43.546875 
Q 18.109375 38.921875 18.109375 30.90625 
L 18.109375 0 
L 9.078125 0 
L 9.078125 54.6875 
L 18.109375 54.6875 
L 18.109375 46.1875 
Q 21.34375 51.125 25.703125 53.5625 
Q 30.078125 56 35.796875 56 
Q 45.21875 56 50.046875 50.171875 
Q 54.890625 44.34375 54.890625 33.015625 
z
" id="DejaVuSans-110"/>
      <path d="M 34.28125 27.484375 
Q 23.390625 27.484375 19.1875 25 
Q 14.984375 22.515625 14.984375 16.5 
Q 14.984375 11.71875 18.140625 8.90625 
Q 21.296875 6.109375 26.703125 6.109375 
Q 34.1875 6.109375 38.703125 11.40625 
Q 43.21875 16.703125 43.21875 25.484375 
L 43.21875 27.484375 
z
M 52.203125 31.203125 
L 52.203125 0 
L 43.21875 0 
L 43.21875 8.296875 
Q 40.140625 3.328125 35.546875 0.953125 
Q 30.953125 -1.421875 24.3125 -1.421875 
Q 15.921875 -1.421875 10.953125 3.296875 
Q 6 8.015625 6 15.921875 
Q 6 25.140625 12.171875 29.828125 
Q 18.359375 34.515625 30.609375 34.515625 
L 43.21875 34.515625 
L 43.21875 35.40625 
Q 43.21875 41.609375 39.140625 45 
Q 35.0625 48.390625 27.6875 48.390625 
Q 23 48.390625 18.546875 47.265625 
Q 14.109375 46.140625 10.015625 43.890625 
L 10.015625 52.203125 
Q 14.9375 54.109375 19.578125 55.046875 
Q 24.21875 56 28.609375 56 
Q 40.484375 56 46.34375 49.84375 
Q 52.203125 43.703125 52.203125 31.203125 
z
" id="DejaVuSans-97"/>
      <path d="M 32.171875 -5.078125 
Q 28.375 -14.84375 24.75 -17.8125 
Q 21.140625 -20.796875 15.09375 -20.796875 
L 7.90625 -20.796875 
L 7.90625 -13.28125 
L 13.1875 -13.28125 
Q 16.890625 -13.28125 18.9375 -11.515625 
Q 21 -9.765625 23.484375 -3.21875 
L 25.09375 0.875 
L 2.984375 54.6875 
L 12.5 54.6875 
L 29.59375 11.921875 
L 46.6875 54.6875 
L 56.203125 54.6875 
z
" id="DejaVuSans-121"/>
      <path d="M 18.3125 70.21875 
L 18.3125 54.6875 
L 36.8125 54.6875 
L 36.8125 47.703125 
L 18.3125 47.703125 
L 18.3125 18.015625 
Q 18.3125 11.328125 20.140625 9.421875 
Q 21.96875 7.515625 27.59375 7.515625 
L 36.8125 7.515625 
L 36.8125 0 
L 27.59375 0 
Q 17.1875 0 13.234375 3.875 
Q 9.28125 7.765625 9.28125 18.015625 
L 9.28125 47.703125 
L 2.6875 47.703125 
L 2.6875 54.6875 
L 9.28125 54.6875 
L 9.28125 70.21875 
z
" id="DejaVuSans-116"/>
      <path d="M 9.421875 54.6875 
L 18.40625 54.6875 
L 18.40625 0 
L 9.421875 0 
z
M 9.421875 75.984375 
L 18.40625 75.984375 
L 18.40625 64.59375 
L 9.421875 64.59375 
z
" id="DejaVuSans-105"/>
      <path d="M 48.78125 52.59375 
L 48.78125 44.1875 
Q 44.96875 46.296875 41.140625 47.34375 
Q 37.3125 48.390625 33.40625 48.390625 
Q 24.65625 48.390625 19.8125 42.84375 
Q 14.984375 37.3125 14.984375 27.296875 
Q 14.984375 17.28125 19.8125 11.734375 
Q 24.65625 6.203125 33.40625 6.203125 
Q 37.3125 6.203125 41.140625 7.25 
Q 44.96875 8.296875 48.78125 10.40625 
L 48.78125 2.09375 
Q 45.015625 0.34375 40.984375 -0.53125 
Q 36.96875 -1.421875 32.421875 -1.421875 
Q 20.0625 -1.421875 12.78125 6.34375 
Q 5.515625 14.109375 5.515625 27.296875 
Q 5.515625 40.671875 12.859375 48.328125 
Q 20.21875 56 33.015625 56 
Q 37.15625 56 41.109375 55.140625 
Q 45.0625 54.296875 48.78125 52.59375 
z
" id="DejaVuSans-99"/>
     </defs>
     <g transform="translate(18.818125 225.902175)rotate(-90)scale(0.1 -0.1)">
      <use xlink:href="#DejaVuSans-77"/>
      <use x="86.279297" xlink:href="#DejaVuSans-111"/>
      <use x="147.460938" xlink:href="#DejaVuSans-100"/>
      <use x="210.9375" xlink:href="#DejaVuSans-101"/>
      <use x="272.460938" xlink:href="#DejaVuSans-108"/>
      <use x="300.244141" xlink:href="#DejaVuSans-32"/>
      <use x="332.03125" xlink:href="#DejaVuSans-67"/>
      <use x="401.855469" xlink:href="#DejaVuSans-32"/>
      <use x="433.642578" xlink:href="#DejaVuSans-45"/>
      <use x="469.726562" xlink:href="#DejaVuSans-32"/>
      <use x="501.513672" xlink:href="#DejaVuSans-65"/>
      <use x="569.921875" xlink:href="#DejaVuSans-110"/>
      <use x="633.300781" xlink:href="#DejaVuSans-97"/>
      <use x="694.580078" xlink:href="#DejaVuSans-108"/>
      <use x="722.363281" xlink:href="#DejaVuSans-121"/>
      <use x="781.542969" xlink:href="#DejaVuSans-116"/>
      <use x="820.751953" xlink:href="#DejaVuSans-105"/>
      <use x="848.535156" xlink:href="#DejaVuSans-99"/>
      <use x="903.515625" xlink:href="#DejaVuSans-97"/>
      <use x="964.794922" xlink:href="#DejaVuSans-108"/>
      <use x="992.578125" xlink:href="#DejaVuSans-32"/>
      <use x="1024.365234" xlink:href="#DejaVuSans-67"/>
     </g>
    </g>
   </g>
   <g id="line2d_23">
    <path clip-path="url(#p9847dcfc08)" d="M 55.734605 70.306114 
L 57.26311 74.116883 
L 58.791615 77.927652 
L 60.32012 81.738421 
L 61.848625 85.549189 
L 63.37713 89.359958 
L 64.905635 93.170727 
L 66.43414 96.981496 
L 67.962645 100.792265 
L 69.49115 104.603033 
L 71.019655 105.757159 
L 72.548161 105.896475 
L 74.076666 106.035791 
L 75.605171 106.175106 
L 77.133676 106.314422 
L 78.662181 106.453737 
L 80.190686 106.593053 
L 81.719191 106.732369 
L 83.247696 106.871684 
L 84.776201 107.011 
L 86.304706 107.150315 
L 87.833211 107.289631 
L 89.361716 107.428946 
L 90.890221 107.568262 
L 92.418726 107.707578 
L 93.947231 107.846893 
L 95.475736 107.986209 
L 97.004241 108.125524 
L 98.532746 108.26484 
L 100.061251 108.404156 
L 101.589756 108.543471 
L 103.118261 108.682787 
L 104.646766 108.822102 
L 106.175271 108.961418 
L 107.703777 109.100734 
L 109.232282 109.240049 
L 110.760787 109.379365 
L 112.289292 109.51868 
L 113.817797 109.657996 
L 115.346302 109.797312 
L 116.874807 109.936627 
L 118.403312 110.075943 
L 119.931817 110.215258 
L 121.460322 110.354574 
L 122.988827 110.493889 
L 124.517332 110.633205 
L 126.045837 110.772521 
L 127.574342 110.911836 
L 129.102847 111.051152 
L 130.631352 111.190467 
L 132.159857 111.329783 
L 133.688362 111.469099 
L 135.216867 111.608414 
L 136.745372 111.74773 
L 138.273877 111.887045 
L 139.802382 112.026361 
L 141.330888 112.165677 
L 142.859393 112.304992 
L 144.387898 112.444308 
L 145.916403 112.583623 
L 147.444908 112.722939 
L 148.973413 112.862254 
L 150.501918 113.00157 
L 152.030423 113.140886 
L 153.558928 113.280201 
L 155.087433 113.419517 
L 156.615938 113.558832 
L 158.144443 113.698148 
L 159.672948 113.837464 
L 161.201453 113.976779 
L 162.729958 114.116095 
L 164.258463 114.25541 
L 165.786968 114.394726 
L 167.315473 114.534042 
L 168.843978 114.673357 
L 170.372483 114.812673 
L 171.900988 114.951988 
L 173.429493 115.091304 
L 174.957999 115.230619 
L 176.486504 115.369935 
L 178.015009 115.509251 
L 179.543514 115.648566 
L 181.072019 115.787882 
L 182.600524 115.927197 
L 184.129029 116.066513 
L 185.657534 116.205829 
L 187.186039 116.345144 
L 188.714544 116.48446 
L 190.243049 116.623775 
L 191.771554 116.763091 
L 193.300059 116.902407 
L 194.828564 117.041722 
L 196.357069 117.181038 
L 197.885574 117.320353 
L 199.414079 117.459669 
L 200.942584 117.598984 
L 202.471089 117.7383 
L 203.999594 117.877616 
L 205.528099 118.016931 
" style="fill:none;stroke:#1f77b4;stroke-linecap:square;stroke-width:1.5;"/>
   </g>
   <g id="line2d_24">
    <path clip-path="url(#p9847dcfc08)" d="M 54.2061 66.495345 
L 55.734605 70.306114 
L 57.26311 74.116883 
L 58.791615 77.927652 
L 60.32012 81.738421 
L 61.848625 85.549189 
L 63.37713 89.359958 
L 64.905635 93.170727 
L 66.43414 96.981496 
L 67.962645 100.792265 
L 69.49115 104.453838 
L 71.019655 106.38009 
L 72.548161 108.306342 
L 74.076666 110.232594 
L 75.605171 112.158846 
L 77.133676 114.085098 
L 78.662181 116.011349 
L 80.190686 117.937601 
L 81.719191 119.863853 
L 83.247696 121.790105 
L 84.776201 123.716357 
L 86.304706 125.642609 
L 87.833211 127.568861 
L 89.361716 129.495112 
L 90.890221 131.421364 
L 92.418726 133.347616 
L 93.947231 135.273868 
L 95.475736 137.20012 
L 97.004241 139.126372 
L 98.532746 141.052624 
L 100.061251 142.978876 
L 101.589756 144.905127 
L 103.118261 146.831379 
L 104.646766 148.757631 
L 106.175271 150.683883 
L 107.703777 152.610135 
L 109.232282 154.536387 
L 110.760787 156.462639 
L 112.289292 158.388891 
L 113.817797 160.315142 
L 115.346302 162.241394 
L 116.874807 164.167646 
L 118.403312 166.093898 
L 119.931817 168.02015 
L 121.460322 169.946402 
L 122.988827 171.872654 
L 124.517332 173.798905 
L 126.045837 175.725157 
L 127.574342 177.651409 
L 129.102847 179.577661 
L 130.631352 181.503913 
L 132.159857 183.430165 
L 133.688362 185.356417 
L 135.216867 187.282669 
L 136.745372 189.20892 
L 138.273877 191.135172 
L 139.802382 193.061424 
L 141.330888 194.987676 
L 142.859393 196.913928 
L 144.387898 198.84018 
L 145.916403 200.766432 
L 147.444908 202.692684 
L 148.973413 204.618935 
L 150.501918 206.545187 
L 152.030423 208.471439 
L 153.558928 210.397691 
L 155.087433 212.323943 
L 156.615938 214.250195 
L 158.144443 216.176447 
L 159.672948 218.102698 
L 161.201453 220.02895 
L 162.729958 221.955202 
L 164.258463 223.881454 
L 165.786968 225.807706 
L 167.315473 227.733958 
L 168.843978 229.66021 
L 170.372483 231.586462 
L 171.900988 233.512713 
L 173.429493 235.438965 
L 174.957999 237.365217 
L 176.486504 239.291469 
L 178.015009 241.217721 
L 179.543514 243.143973 
L 181.072019 245.070225 
L 182.600524 246.996477 
L 184.129029 248.922728 
L 185.657534 250.84898 
L 187.186039 252.775232 
L 188.714544 254.701484 
L 190.243049 256.627736 
L 191.771554 258.553988 
L 193.300059 260.48024 
L 194.828564 262.406491 
L 196.357069 264.332743 
L 197.885574 266.258995 
L 199.414079 268.185247 
L 200.942584 270.111499 
L 202.471089 272.037751 
L 203.999594 273.964003 
L 205.528099 275.890255 
" style="fill:none;stroke:#ff7f0e;stroke-linecap:square;stroke-width:1.5;"/>
   </g>
   <g id="line2d_25">
    <path clip-path="url(#p9847dcfc08)" d="M 54.2061 66.495345 
L 55.734605 66.495345 
L 57.26311 66.495345 
L 58.791615 66.495345 
L 60.32012 66.495345 
L 61.848625 66.495345 
L 63.37713 66.495345 
L 64.905635 66.495345 
L 66.43414 66.495345 
L 67.962645 66.495345 
L 69.49115 66.495345 
L 71.019655 66.495345 
L 72.548161 66.495345 
L 74.076666 66.495345 
L 75.605171 66.495345 
L 77.133676 66.495345 
L 78.662181 66.495345 
L 80.190686 66.495345 
L 81.719191 66.495345 
L 83.247696 66.495345 
L 84.776201 66.495345 
L 86.304706 66.495345 
L 87.833211 66.495345 
L 89.361716 66.495345 
L 90.890221 66.495345 
L 92.418726 66.495345 
L 93.947231 66.495345 
L 95.475736 66.495345 
L 97.004241 66.495345 
L 98.532746 66.495345 
L 100.061251 66.495345 
L 101.589756 66.495345 
L 103.118261 66.495345 
L 104.646766 66.495345 
L 106.175271 66.495345 
L 107.703777 66.495345 
L 109.232282 66.495345 
L 110.760787 66.495345 
L 112.289292 66.495345 
L 113.817797 66.495345 
L 115.346302 66.495345 
L 116.874807 66.495345 
L 118.403312 66.495345 
L 119.931817 66.495345 
L 121.460322 66.495345 
L 122.988827 66.495345 
L 124.517332 66.495345 
L 126.045837 66.495345 
L 127.574342 66.495345 
L 129.102847 66.495345 
L 130.631352 66.495345 
L 132.159857 66.495345 
L 133.688362 66.495345 
L 135.216867 66.495345 
L 136.745372 66.495345 
L 138.273877 66.495345 
L 139.802382 66.495345 
L 141.330888 66.495345 
L 142.859393 66.495345 
L 144.387898 66.495345 
L 145.916403 66.495345 
L 147.444908 66.495345 
L 148.973413 66.495345 
L 150.501918 66.495345 
L 152.030423 66.495345 
L 153.558928 66.495345 
L 155.087433 66.495345 
L 156.615938 66.495345 
L 158.144443 66.495345 
L 159.672948 66.495345 
L 161.201453 66.495345 
L 162.729958 66.495345 
L 164.258463 66.495345 
L 165.786968 66.495345 
L 167.315473 66.495345 
L 168.843978 66.495345 
L 170.372483 66.495345 
L 171.900988 66.495345 
L 173.429493 66.495345 
L 174.957999 66.495345 
L 176.486504 66.495345 
L 178.015009 66.495345 
L 179.543514 66.495345 
L 181.072019 66.495345 
L 182.600524 66.495345 
L 184.129029 66.495345 
L 185.657534 66.495345 
L 187.186039 66.495345 
L 188.714544 66.495345 
L 190.243049 66.495345 
L 191.771554 66.495345 
L 193.300059 66.495345 
L 194.828564 66.495345 
L 196.357069 66.495345 
L 197.885574 66.495345 
L 199.414079 66.495345 
L 200.942584 66.495345 
L 202.471089 66.495345 
L 203.999594 66.495345 
L 205.528099 66.495345 
" style="fill:none;stroke:#2ca02c;stroke-linecap:square;stroke-width:1.5;"/>
   </g>
   <g id="patch_3">
    <path d="M 46.64 286.36 
L 46.64 56.0256 
" style="fill:none;stroke:#000000;stroke-linecap:square;stroke-linejoin:miter;stroke-width:0.8;"/>
   </g>
   <g id="patch_4">
    <path d="M 213.094199 286.36 
L 213.094199 56.0256 
" style="fill:none;stroke:#000000;stroke-linecap:square;stroke-linejoin:miter;stroke-width:0.8;"/>
   </g>
   <g id="patch_5">
    <path d="M 46.64 286.36 
L 213.094199 286.36 
" style="fill:none;stroke:#000000;stroke-linecap:square;stroke-linejoin:miter;stroke-width:0.8;"/>
   </g>
   <g id="patch_6">
    <path d="M 46.64 56.0256 
L 213.094199 56.0256 
" style="fill:none;stroke:#000000;stroke-linecap:square;stroke-linejoin:miter;stroke-width:0.8;"/>
   </g>
   <g id="text_14">
    <!-- PortfolioConsumerType -->
    <defs>
     <path d="M 19.671875 64.796875 
L 19.671875 37.40625 
L 32.078125 37.40625 
Q 38.96875 37.40625 42.71875 40.96875 
Q 46.484375 44.53125 46.484375 51.125 
Q 46.484375 57.671875 42.71875 61.234375 
Q 38.96875 64.796875 32.078125 64.796875 
z
M 9.8125 72.90625 
L 32.078125 72.90625 
Q 44.34375 72.90625 50.609375 67.359375 
Q 56.890625 61.8125 56.890625 51.125 
Q 56.890625 40.328125 50.609375 34.8125 
Q 44.34375 29.296875 32.078125 29.296875 
L 19.671875 29.296875 
L 19.671875 0 
L 9.8125 0 
z
" id="DejaVuSans-80"/>
     <path d="M 41.109375 46.296875 
Q 39.59375 47.171875 37.8125 47.578125 
Q 36.03125 48 33.890625 48 
Q 26.265625 48 22.1875 43.046875 
Q 18.109375 38.09375 18.109375 28.8125 
L 18.109375 0 
L 9.078125 0 
L 9.078125 54.6875 
L 18.109375 54.6875 
L 18.109375 46.1875 
Q 20.953125 51.171875 25.484375 53.578125 
Q 30.03125 56 36.53125 56 
Q 37.453125 56 38.578125 55.875 
Q 39.703125 55.765625 41.0625 55.515625 
z
" id="DejaVuSans-114"/>
     <path d="M 37.109375 75.984375 
L 37.109375 68.5 
L 28.515625 68.5 
Q 23.6875 68.5 21.796875 66.546875 
Q 19.921875 64.59375 19.921875 59.515625 
L 19.921875 54.6875 
L 34.71875 54.6875 
L 34.71875 47.703125 
L 19.921875 47.703125 
L 19.921875 0 
L 10.890625 0 
L 10.890625 47.703125 
L 2.296875 47.703125 
L 2.296875 54.6875 
L 10.890625 54.6875 
L 10.890625 58.5 
Q 10.890625 67.625 15.140625 71.796875 
Q 19.390625 75.984375 28.609375 75.984375 
z
" id="DejaVuSans-102"/>
     <path d="M 44.28125 53.078125 
L 44.28125 44.578125 
Q 40.484375 46.53125 36.375 47.5 
Q 32.28125 48.484375 27.875 48.484375 
Q 21.1875 48.484375 17.84375 46.4375 
Q 14.5 44.390625 14.5 40.28125 
Q 14.5 37.15625 16.890625 35.375 
Q 19.28125 33.59375 26.515625 31.984375 
L 29.59375 31.296875 
Q 39.15625 29.25 43.1875 25.515625 
Q 47.21875 21.78125 47.21875 15.09375 
Q 47.21875 7.46875 41.1875 3.015625 
Q 35.15625 -1.421875 24.609375 -1.421875 
Q 20.21875 -1.421875 15.453125 -0.5625 
Q 10.6875 0.296875 5.421875 2 
L 5.421875 11.28125 
Q 10.40625 8.6875 15.234375 7.390625 
Q 20.0625 6.109375 24.8125 6.109375 
Q 31.15625 6.109375 34.5625 8.28125 
Q 37.984375 10.453125 37.984375 14.40625 
Q 37.984375 18.0625 35.515625 20.015625 
Q 33.0625 21.96875 24.703125 23.78125 
L 21.578125 24.515625 
Q 13.234375 26.265625 9.515625 29.90625 
Q 5.8125 33.546875 5.8125 39.890625 
Q 5.8125 47.609375 11.28125 51.796875 
Q 16.75 56 26.8125 56 
Q 31.78125 56 36.171875 55.265625 
Q 40.578125 54.546875 44.28125 53.078125 
z
" id="DejaVuSans-115"/>
     <path d="M 8.5 21.578125 
L 8.5 54.6875 
L 17.484375 54.6875 
L 17.484375 21.921875 
Q 17.484375 14.15625 20.5 10.265625 
Q 23.53125 6.390625 29.59375 6.390625 
Q 36.859375 6.390625 41.078125 11.03125 
Q 45.3125 15.671875 45.3125 23.6875 
L 45.3125 54.6875 
L 54.296875 54.6875 
L 54.296875 0 
L 45.3125 0 
L 45.3125 8.40625 
Q 42.046875 3.421875 37.71875 1 
Q 33.40625 -1.421875 27.6875 -1.421875 
Q 18.265625 -1.421875 13.375 4.4375 
Q 8.5 10.296875 8.5 21.578125 
z
M 31.109375 56 
z
" id="DejaVuSans-117"/>
     <path d="M 52 44.1875 
Q 55.375 50.25 60.0625 53.125 
Q 64.75 56 71.09375 56 
Q 79.640625 56 84.28125 50.015625 
Q 88.921875 44.046875 88.921875 33.015625 
L 88.921875 0 
L 79.890625 0 
L 79.890625 32.71875 
Q 79.890625 40.578125 77.09375 44.375 
Q 74.3125 48.1875 68.609375 48.1875 
Q 61.625 48.1875 57.5625 43.546875 
Q 53.515625 38.921875 53.515625 30.90625 
L 53.515625 0 
L 44.484375 0 
L 44.484375 32.71875 
Q 44.484375 40.625 41.703125 44.40625 
Q 38.921875 48.1875 33.109375 48.1875 
Q 26.21875 48.1875 22.15625 43.53125 
Q 18.109375 38.875 18.109375 30.90625 
L 18.109375 0 
L 9.078125 0 
L 9.078125 54.6875 
L 18.109375 54.6875 
L 18.109375 46.1875 
Q 21.1875 51.21875 25.484375 53.609375 
Q 29.78125 56 35.6875 56 
Q 41.65625 56 45.828125 52.96875 
Q 50 49.953125 52 44.1875 
z
" id="DejaVuSans-109"/>
     <path d="M -0.296875 72.90625 
L 61.375 72.90625 
L 61.375 64.59375 
L 35.5 64.59375 
L 35.5 0 
L 25.59375 0 
L 25.59375 64.59375 
L -0.296875 64.59375 
z
" id="DejaVuSans-84"/>
     <path d="M 18.109375 8.203125 
L 18.109375 -20.796875 
L 9.078125 -20.796875 
L 9.078125 54.6875 
L 18.109375 54.6875 
L 18.109375 46.390625 
Q 20.953125 51.265625 25.265625 53.625 
Q 29.59375 56 35.59375 56 
Q 45.5625 56 51.78125 48.09375 
Q 58.015625 40.1875 58.015625 27.296875 
Q 58.015625 14.40625 51.78125 6.484375 
Q 45.5625 -1.421875 35.59375 -1.421875 
Q 29.59375 -1.421875 25.265625 0.953125 
Q 20.953125 3.328125 18.109375 8.203125 
z
M 48.6875 27.296875 
Q 48.6875 37.203125 44.609375 42.84375 
Q 40.53125 48.484375 33.40625 48.484375 
Q 26.265625 48.484375 22.1875 42.84375 
Q 18.109375 37.203125 18.109375 27.296875 
Q 18.109375 17.390625 22.1875 11.75 
Q 26.265625 6.109375 33.40625 6.109375 
Q 40.53125 6.109375 44.609375 11.75 
Q 48.6875 17.390625 48.6875 27.296875 
z
" id="DejaVuSans-112"/>
    </defs>
    <g transform="translate(59.676475 38.50888)scale(0.12 -0.12)">
     <use xlink:href="#DejaVuSans-80"/>
     <use x="60.255859" xlink:href="#DejaVuSans-111"/>
     <use x="121.4375" xlink:href="#DejaVuSans-114"/>
     <use x="162.550781" xlink:href="#DejaVuSans-116"/>
     <use x="201.759766" xlink:href="#DejaVuSans-102"/>
     <use x="236.964844" xlink:href="#DejaVuSans-111"/>
     <use x="298.146484" xlink:href="#DejaVuSans-108"/>
     <use x="325.929688" xlink:href="#DejaVuSans-105"/>
     <use x="353.712891" xlink:href="#DejaVuSans-111"/>
     <use x="414.894531" xlink:href="#DejaVuSans-67"/>
     <use x="484.71875" xlink:href="#DejaVuSans-111"/>
     <use x="545.900391" xlink:href="#DejaVuSans-110"/>
     <use x="609.279297" xlink:href="#DejaVuSans-115"/>
     <use x="661.378906" xlink:href="#DejaVuSans-117"/>
     <use x="724.757812" xlink:href="#DejaVuSans-109"/>
     <use x="822.169922" xlink:href="#DejaVuSans-101"/>
     <use x="883.693359" xlink:href="#DejaVuSans-114"/>
     <use x="924.806641" xlink:href="#DejaVuSans-84"/>
     <use x="985.65625" xlink:href="#DejaVuSans-121"/>
     <use x="1044.835938" xlink:href="#DejaVuSans-112"/>
     <use x="1108.3125" xlink:href="#DejaVuSans-101"/>
    </g>
   </g>
  </g>
  <g id="axes_2">
   <g id="patch_7">
    <path d="M 279.445687 286.36 
L 445.899886 286.36 
L 445.899886 56.0256 
L 279.445687 56.0256 
z
" style="fill:#ffffff;"/>
   </g>
   <g id="matplotlib.axis_3">
    <g id="xtick_6">
     <g id="line2d_26">
      <path clip-path="url(#p80275fd14d)" d="M 287.011787 286.36 
L 287.011787 56.0256 
" style="fill:none;stroke:#b0b0b0;stroke-linecap:square;stroke-width:0.8;"/>
     </g>
     <g id="line2d_27">
      <g>
       <use style="stroke:#000000;stroke-width:0.8;" x="287.011787" xlink:href="#m30bd63cf6c" y="286.36"/>
      </g>
     </g>
     <g id="text_15">
      <!-- 0.0 -->
      <g transform="translate(279.060224 300.958437)scale(0.1 -0.1)">
       <use xlink:href="#DejaVuSans-48"/>
       <use x="63.623047" xlink:href="#DejaVuSans-46"/>
       <use x="95.410156" xlink:href="#DejaVuSans-48"/>
      </g>
     </g>
    </g>
    <g id="xtick_7">
     <g id="line2d_28">
      <path clip-path="url(#p80275fd14d)" d="M 324.842287 286.36 
L 324.842287 56.0256 
" style="fill:none;stroke:#b0b0b0;stroke-linecap:square;stroke-width:0.8;"/>
     </g>
     <g id="line2d_29">
      <g>
       <use style="stroke:#000000;stroke-width:0.8;" x="324.842287" xlink:href="#m30bd63cf6c" y="286.36"/>
      </g>
     </g>
     <g id="text_16">
      <!-- 2.5 -->
      <g transform="translate(316.890724 300.958437)scale(0.1 -0.1)">
       <use xlink:href="#DejaVuSans-50"/>
       <use x="63.623047" xlink:href="#DejaVuSans-46"/>
       <use x="95.410156" xlink:href="#DejaVuSans-53"/>
      </g>
     </g>
    </g>
    <g id="xtick_8">
     <g id="line2d_30">
      <path clip-path="url(#p80275fd14d)" d="M 362.672787 286.36 
L 362.672787 56.0256 
" style="fill:none;stroke:#b0b0b0;stroke-linecap:square;stroke-width:0.8;"/>
     </g>
     <g id="line2d_31">
      <g>
       <use style="stroke:#000000;stroke-width:0.8;" x="362.672787" xlink:href="#m30bd63cf6c" y="286.36"/>
      </g>
     </g>
     <g id="text_17">
      <!-- 5.0 -->
      <g transform="translate(354.721224 300.958437)scale(0.1 -0.1)">
       <use xlink:href="#DejaVuSans-53"/>
       <use x="63.623047" xlink:href="#DejaVuSans-46"/>
       <use x="95.410156" xlink:href="#DejaVuSans-48"/>
      </g>
     </g>
    </g>
    <g id="xtick_9">
     <g id="line2d_32">
      <path clip-path="url(#p80275fd14d)" d="M 400.503287 286.36 
L 400.503287 56.0256 
" style="fill:none;stroke:#b0b0b0;stroke-linecap:square;stroke-width:0.8;"/>
     </g>
     <g id="line2d_33">
      <g>
       <use style="stroke:#000000;stroke-width:0.8;" x="400.503287" xlink:href="#m30bd63cf6c" y="286.36"/>
      </g>
     </g>
     <g id="text_18">
      <!-- 7.5 -->
      <g transform="translate(392.551724 300.958437)scale(0.1 -0.1)">
       <use xlink:href="#DejaVuSans-55"/>
       <use x="63.623047" xlink:href="#DejaVuSans-46"/>
       <use x="95.410156" xlink:href="#DejaVuSans-53"/>
      </g>
     </g>
    </g>
    <g id="xtick_10">
     <g id="line2d_34">
      <path clip-path="url(#p80275fd14d)" d="M 438.333786 286.36 
L 438.333786 56.0256 
" style="fill:none;stroke:#b0b0b0;stroke-linecap:square;stroke-width:0.8;"/>
     </g>
     <g id="line2d_35">
      <g>
       <use style="stroke:#000000;stroke-width:0.8;" x="438.333786" xlink:href="#m30bd63cf6c" y="286.36"/>
      </g>
     </g>
     <g id="text_19">
      <!-- 10.0 -->
      <g transform="translate(427.200974 300.958437)scale(0.1 -0.1)">
       <use xlink:href="#DejaVuSans-49"/>
       <use x="63.623047" xlink:href="#DejaVuSans-48"/>
       <use x="127.246094" xlink:href="#DejaVuSans-46"/>
       <use x="159.033203" xlink:href="#DejaVuSans-48"/>
      </g>
     </g>
    </g>
    <g id="text_20">
     <!-- M -->
     <g transform="translate(358.358724 314.636562)scale(0.1 -0.1)">
      <use xlink:href="#DejaVuSans-77"/>
     </g>
    </g>
   </g>
   <g id="matplotlib.axis_4">
    <g id="ytick_7">
     <g id="line2d_36">
      <path clip-path="url(#p80275fd14d)" d="M 279.445687 271.377995 
L 445.899886 271.377995 
" style="fill:none;stroke:#b0b0b0;stroke-linecap:square;stroke-width:0.8;"/>
     </g>
     <g id="line2d_37">
      <g>
       <use style="stroke:#000000;stroke-width:0.8;" x="279.445687" xlink:href="#m18d2475a3b" y="271.377995"/>
      </g>
     </g>
     <g id="text_21">
      <!-- −0.25 -->
      <g transform="translate(241.800374 275.177213)scale(0.1 -0.1)">
       <use xlink:href="#DejaVuSans-8722"/>
       <use x="83.789062" xlink:href="#DejaVuSans-48"/>
       <use x="147.412109" xlink:href="#DejaVuSans-46"/>
       <use x="179.199219" xlink:href="#DejaVuSans-50"/>
       <use x="242.822266" xlink:href="#DejaVuSans-53"/>
      </g>
     </g>
    </g>
    <g id="ytick_8">
     <g id="line2d_38">
      <path clip-path="url(#p80275fd14d)" d="M 279.445687 230.401465 
L 445.899886 230.401465 
" style="fill:none;stroke:#b0b0b0;stroke-linecap:square;stroke-width:0.8;"/>
     </g>
     <g id="line2d_39">
      <g>
       <use style="stroke:#000000;stroke-width:0.8;" x="279.445687" xlink:href="#m18d2475a3b" y="230.401465"/>
      </g>
     </g>
     <g id="text_22">
      <!-- −0.20 -->
      <g transform="translate(241.800374 234.200684)scale(0.1 -0.1)">
       <use xlink:href="#DejaVuSans-8722"/>
       <use x="83.789062" xlink:href="#DejaVuSans-48"/>
       <use x="147.412109" xlink:href="#DejaVuSans-46"/>
       <use x="179.199219" xlink:href="#DejaVuSans-50"/>
       <use x="242.822266" xlink:href="#DejaVuSans-48"/>
      </g>
     </g>
    </g>
    <g id="ytick_9">
     <g id="line2d_40">
      <path clip-path="url(#p80275fd14d)" d="M 279.445687 189.424935 
L 445.899886 189.424935 
" style="fill:none;stroke:#b0b0b0;stroke-linecap:square;stroke-width:0.8;"/>
     </g>
     <g id="line2d_41">
      <g>
       <use style="stroke:#000000;stroke-width:0.8;" x="279.445687" xlink:href="#m18d2475a3b" y="189.424935"/>
      </g>
     </g>
     <g id="text_23">
      <!-- −0.15 -->
      <g transform="translate(241.800374 193.224154)scale(0.1 -0.1)">
       <use xlink:href="#DejaVuSans-8722"/>
       <use x="83.789062" xlink:href="#DejaVuSans-48"/>
       <use x="147.412109" xlink:href="#DejaVuSans-46"/>
       <use x="179.199219" xlink:href="#DejaVuSans-49"/>
       <use x="242.822266" xlink:href="#DejaVuSans-53"/>
      </g>
     </g>
    </g>
    <g id="ytick_10">
     <g id="line2d_42">
      <path clip-path="url(#p80275fd14d)" d="M 279.445687 148.448405 
L 445.899886 148.448405 
" style="fill:none;stroke:#b0b0b0;stroke-linecap:square;stroke-width:0.8;"/>
     </g>
     <g id="line2d_43">
      <g>
       <use style="stroke:#000000;stroke-width:0.8;" x="279.445687" xlink:href="#m18d2475a3b" y="148.448405"/>
      </g>
     </g>
     <g id="text_24">
      <!-- −0.10 -->
      <g transform="translate(241.800374 152.247624)scale(0.1 -0.1)">
       <use xlink:href="#DejaVuSans-8722"/>
       <use x="83.789062" xlink:href="#DejaVuSans-48"/>
       <use x="147.412109" xlink:href="#DejaVuSans-46"/>
       <use x="179.199219" xlink:href="#DejaVuSans-49"/>
       <use x="242.822266" xlink:href="#DejaVuSans-48"/>
      </g>
     </g>
    </g>
    <g id="ytick_11">
     <g id="line2d_44">
      <path clip-path="url(#p80275fd14d)" d="M 279.445687 107.471875 
L 445.899886 107.471875 
" style="fill:none;stroke:#b0b0b0;stroke-linecap:square;stroke-width:0.8;"/>
     </g>
     <g id="line2d_45">
      <g>
       <use style="stroke:#000000;stroke-width:0.8;" x="279.445687" xlink:href="#m18d2475a3b" y="107.471875"/>
      </g>
     </g>
     <g id="text_25">
      <!-- −0.05 -->
      <g transform="translate(241.800374 111.271094)scale(0.1 -0.1)">
       <use xlink:href="#DejaVuSans-8722"/>
       <use x="83.789062" xlink:href="#DejaVuSans-48"/>
       <use x="147.412109" xlink:href="#DejaVuSans-46"/>
       <use x="179.199219" xlink:href="#DejaVuSans-48"/>
       <use x="242.822266" xlink:href="#DejaVuSans-53"/>
      </g>
     </g>
    </g>
    <g id="ytick_12">
     <g id="line2d_46">
      <path clip-path="url(#p80275fd14d)" d="M 279.445687 66.495345 
L 445.899886 66.495345 
" style="fill:none;stroke:#b0b0b0;stroke-linecap:square;stroke-width:0.8;"/>
     </g>
     <g id="line2d_47">
      <g>
       <use style="stroke:#000000;stroke-width:0.8;" x="279.445687" xlink:href="#m18d2475a3b" y="66.495345"/>
      </g>
     </g>
     <g id="text_26">
      <!-- 0.00 -->
      <g transform="translate(250.180062 70.294564)scale(0.1 -0.1)">
       <use xlink:href="#DejaVuSans-48"/>
       <use x="63.623047" xlink:href="#DejaVuSans-46"/>
       <use x="95.410156" xlink:href="#DejaVuSans-48"/>
       <use x="159.033203" xlink:href="#DejaVuSans-48"/>
      </g>
     </g>
    </g>
    <g id="text_27">
     <!-- Model C - Analytical C -->
     <g transform="translate(235.720687 225.902175)rotate(-90)scale(0.1 -0.1)">
      <use xlink:href="#DejaVuSans-77"/>
      <use x="86.279297" xlink:href="#DejaVuSans-111"/>
      <use x="147.460938" xlink:href="#DejaVuSans-100"/>
      <use x="210.9375" xlink:href="#DejaVuSans-101"/>
      <use x="272.460938" xlink:href="#DejaVuSans-108"/>
      <use x="300.244141" xlink:href="#DejaVuSans-32"/>
      <use x="332.03125" xlink:href="#DejaVuSans-67"/>
      <use x="401.855469" xlink:href="#DejaVuSans-32"/>
      <use x="433.642578" xlink:href="#DejaVuSans-45"/>
      <use x="469.726562" xlink:href="#DejaVuSans-32"/>
      <use x="501.513672" xlink:href="#DejaVuSans-65"/>
      <use x="569.921875" xlink:href="#DejaVuSans-110"/>
      <use x="633.300781" xlink:href="#DejaVuSans-97"/>
      <use x="694.580078" xlink:href="#DejaVuSans-108"/>
      <use x="722.363281" xlink:href="#DejaVuSans-121"/>
      <use x="781.542969" xlink:href="#DejaVuSans-116"/>
      <use x="820.751953" xlink:href="#DejaVuSans-105"/>
      <use x="848.535156" xlink:href="#DejaVuSans-99"/>
      <use x="903.515625" xlink:href="#DejaVuSans-97"/>
      <use x="964.794922" xlink:href="#DejaVuSans-108"/>
      <use x="992.578125" xlink:href="#DejaVuSans-32"/>
      <use x="1024.365234" xlink:href="#DejaVuSans-67"/>
     </g>
    </g>
   </g>
   <g id="line2d_48">
    <path clip-path="url(#p80275fd14d)" d="M 287.011787 66.495345 
L 288.540292 66.495345 
L 290.068797 66.495345 
L 291.597302 66.495345 
L 293.125807 66.495345 
L 294.654312 66.495345 
L 296.182817 66.495345 
L 297.711322 66.495345 
L 299.239827 66.495345 
L 300.768332 66.495345 
L 302.296837 70.252995 
L 303.825342 82.334447 
L 305.353847 77.952951 
L 306.882353 75.040863 
L 308.410858 73.491285 
L 309.939363 73.491285 
L 311.467868 73.491285 
L 312.996373 73.491285 
L 314.524878 73.491285 
L 316.053383 73.491285 
L 317.581888 73.491285 
L 319.110393 73.491285 
L 320.638898 73.491285 
L 322.167403 73.491285 
L 323.695908 73.491285 
L 325.224413 73.491285 
L 326.752918 73.491285 
L 328.281423 73.491285 
L 329.809928 73.491285 
L 331.338433 73.491285 
L 332.866938 73.491285 
L 334.395443 73.491285 
L 335.923948 73.491285 
L 337.452453 73.491285 
L 338.980958 73.491285 
L 340.509464 73.491285 
L 342.037969 73.491285 
L 343.566474 73.491285 
L 345.094979 73.491285 
L 346.623484 73.491285 
L 348.151989 73.491285 
L 349.680494 73.491285 
L 351.208999 73.491285 
L 352.737504 73.491285 
L 354.266009 73.491285 
L 355.794514 73.491285 
L 357.323019 73.491285 
L 358.851524 73.491285 
L 360.380029 73.491285 
L 361.908534 73.491285 
L 363.437039 73.491285 
L 364.965544 73.491285 
L 366.494049 73.491285 
L 368.022554 73.491285 
L 369.551059 73.491285 
L 371.079564 73.491285 
L 372.608069 73.491285 
L 374.136575 73.491285 
L 375.66508 73.491285 
L 377.193585 73.491285 
L 378.72209 73.491285 
L 380.250595 73.491285 
L 381.7791 73.491285 
L 383.307605 73.491285 
L 384.83611 73.491285 
L 386.364615 73.491285 
L 387.89312 73.491285 
L 389.421625 73.491285 
L 390.95013 73.491285 
L 392.478635 73.491285 
L 394.00714 73.491285 
L 395.535645 73.491285 
L 397.06415 73.491285 
L 398.592655 73.491285 
L 400.12116 73.491285 
L 401.649665 73.491285 
L 403.17817 73.491285 
L 404.706675 73.491285 
L 406.23518 73.491285 
L 407.763685 73.491285 
L 409.292191 73.491285 
L 410.820696 73.491285 
L 412.349201 73.491285 
L 413.877706 73.491285 
L 415.406211 73.491285 
L 416.934716 73.491285 
L 418.463221 73.491285 
L 419.991726 73.491285 
L 421.520231 73.491285 
L 423.048736 73.491285 
L 424.577241 73.491285 
L 426.105746 73.491285 
L 427.634251 73.491285 
L 429.162756 73.491285 
L 430.691261 73.491285 
L 432.219766 73.491285 
L 433.748271 73.491285 
L 435.276776 73.491285 
L 436.805281 73.491285 
L 438.333786 73.491285 
" style="fill:none;stroke:#1f77b4;stroke-linecap:square;stroke-width:1.5;"/>
   </g>
   <g id="line2d_49">
    <path clip-path="url(#p80275fd14d)" d="M 287.011787 66.495345 
L 288.540292 66.495345 
L 290.068797 66.495345 
L 291.597302 66.495345 
L 293.125807 66.495345 
L 294.654312 74.445541 
L 296.182817 115.382674 
L 297.711322 156.319806 
L 299.239827 197.256939 
L 300.768332 238.194071 
L 302.296837 275.890255 
L 303.825342 275.890255 
L 305.353847 275.890255 
L 306.882353 275.890255 
L 308.410858 275.890255 
L 309.939363 275.890255 
L 311.467868 275.890255 
L 312.996373 275.890255 
L 314.524878 275.890255 
L 316.053383 275.890255 
L 317.581888 275.890255 
L 319.110393 275.890255 
L 320.638898 275.890255 
L 322.167403 275.890255 
L 323.695908 275.890255 
L 325.224413 275.890255 
L 326.752918 275.890255 
L 328.281423 275.890255 
L 329.809928 275.890255 
L 331.338433 275.890255 
L 332.866938 275.890255 
L 334.395443 275.890255 
L 335.923948 275.890255 
L 337.452453 275.890255 
L 338.980958 275.890255 
L 340.509464 275.890255 
L 342.037969 275.890255 
L 343.566474 275.890255 
L 345.094979 275.890255 
L 346.623484 275.890255 
L 348.151989 275.890255 
L 349.680494 275.890255 
L 351.208999 275.890255 
L 352.737504 275.890255 
L 354.266009 275.890255 
L 355.794514 275.890255 
L 357.323019 275.890255 
L 358.851524 275.890255 
L 360.380029 275.890255 
L 361.908534 275.890255 
L 363.437039 275.890255 
L 364.965544 275.890255 
L 366.494049 275.890255 
L 368.022554 275.890255 
L 369.551059 275.890255 
L 371.079564 275.890255 
L 372.608069 275.890255 
L 374.136575 275.890255 
L 375.66508 275.890255 
L 377.193585 275.890255 
L 378.72209 275.890255 
L 380.250595 275.890255 
L 381.7791 275.890255 
L 383.307605 275.890255 
L 384.83611 275.890255 
L 386.364615 275.890255 
L 387.89312 275.890255 
L 389.421625 275.890255 
L 390.95013 275.890255 
L 392.478635 275.890255 
L 394.00714 275.890255 
L 395.535645 275.890255 
L 397.06415 275.890255 
L 398.592655 275.890255 
L 400.12116 275.890255 
L 401.649665 275.890255 
L 403.17817 275.890255 
L 404.706675 275.890255 
L 406.23518 275.890255 
L 407.763685 275.890255 
L 409.292191 275.890255 
L 410.820696 275.890255 
L 412.349201 275.890255 
L 413.877706 275.890255 
L 415.406211 275.890255 
L 416.934716 275.890255 
L 418.463221 275.890255 
L 419.991726 275.890255 
L 421.520231 275.890255 
L 423.048736 275.890255 
L 424.577241 275.890255 
L 426.105746 275.890255 
L 427.634251 275.890255 
L 429.162756 275.890255 
L 430.691261 275.890255 
L 432.219766 275.890255 
L 433.748271 275.890255 
L 435.276776 275.890255 
L 436.805281 275.890255 
L 438.333786 275.890255 
" style="fill:none;stroke:#ff7f0e;stroke-linecap:square;stroke-width:1.5;"/>
   </g>
   <g id="line2d_50">
    <path clip-path="url(#p80275fd14d)" d="M 287.011787 66.495345 
L 288.540292 66.495345 
L 290.068797 66.495345 
L 291.597302 66.495345 
L 293.125807 66.495345 
L 294.654312 66.495345 
L 296.182817 66.495345 
L 297.711322 66.495345 
L 299.239827 66.495345 
L 300.768332 66.495345 
L 302.296837 66.495345 
L 303.825342 66.495345 
L 305.353847 66.495345 
L 306.882353 66.495345 
L 308.410858 66.495345 
L 309.939363 66.495345 
L 311.467868 66.495345 
L 312.996373 66.495345 
L 314.524878 66.495345 
L 316.053383 66.495345 
L 317.581888 66.495345 
L 319.110393 66.495345 
L 320.638898 66.495345 
L 322.167403 66.495345 
L 323.695908 66.495345 
L 325.224413 66.495345 
L 326.752918 66.495345 
L 328.281423 66.495345 
L 329.809928 66.495345 
L 331.338433 66.495345 
L 332.866938 66.495345 
L 334.395443 66.495345 
L 335.923948 66.495345 
L 337.452453 66.495345 
L 338.980958 66.495345 
L 340.509464 66.495345 
L 342.037969 66.495345 
L 343.566474 66.495345 
L 345.094979 66.495345 
L 346.623484 66.495345 
L 348.151989 66.495345 
L 349.680494 66.495345 
L 351.208999 66.495345 
L 352.737504 66.495345 
L 354.266009 66.495345 
L 355.794514 66.495345 
L 357.323019 66.495345 
L 358.851524 66.495345 
L 360.380029 66.495345 
L 361.908534 66.495345 
L 363.437039 66.495345 
L 364.965544 66.495345 
L 366.494049 66.495345 
L 368.022554 66.495345 
L 369.551059 66.495345 
L 371.079564 66.495345 
L 372.608069 66.495345 
L 374.136575 66.495345 
L 375.66508 66.495345 
L 377.193585 66.495345 
L 378.72209 66.495345 
L 380.250595 66.495345 
L 381.7791 66.495345 
L 383.307605 66.495345 
L 384.83611 66.495345 
L 386.364615 66.495345 
L 387.89312 66.495345 
L 389.421625 66.495345 
L 390.95013 66.495345 
L 392.478635 66.495345 
L 394.00714 66.495345 
L 395.535645 66.495345 
L 397.06415 66.495345 
L 398.592655 66.495345 
L 400.12116 66.495345 
L 401.649665 66.495345 
L 403.17817 66.495345 
L 404.706675 66.495345 
L 406.23518 66.495345 
L 407.763685 66.495345 
L 409.292191 66.495345 
L 410.820696 66.495345 
L 412.349201 66.495345 
L 413.877706 66.495345 
L 415.406211 66.495345 
L 416.934716 66.495345 
L 418.463221 66.495345 
L 419.991726 66.495345 
L 421.520231 66.495345 
L 423.048736 66.495345 
L 424.577241 66.495345 
L 426.105746 66.495345 
L 427.634251 66.495345 
L 429.162756 66.495345 
L 430.691261 66.495345 
L 432.219766 66.495345 
L 433.748271 66.495345 
L 435.276776 66.495345 
L 436.805281 66.495345 
L 438.333786 66.495345 
" style="fill:none;stroke:#2ca02c;stroke-linecap:square;stroke-width:1.5;"/>
   </g>
   <g id="patch_8">
    <path d="M 279.445687 286.36 
L 279.445687 56.0256 
" style="fill:none;stroke:#000000;stroke-linecap:square;stroke-linejoin:miter;stroke-width:0.8;"/>
   </g>
   <g id="patch_9">
    <path d="M 445.899886 286.36 
L 445.899886 56.0256 
" style="fill:none;stroke:#000000;stroke-linecap:square;stroke-linejoin:miter;stroke-width:0.8;"/>
   </g>
   <g id="patch_10">
    <path d="M 279.445687 286.36 
L 445.899886 286.36 
" style="fill:none;stroke:#000000;stroke-linecap:square;stroke-linejoin:miter;stroke-width:0.8;"/>
   </g>
   <g id="patch_11">
    <path d="M 279.445687 56.0256 
L 445.899886 56.0256 
" style="fill:none;stroke:#000000;stroke-linecap:square;stroke-linejoin:miter;stroke-width:0.8;"/>
   </g>
   <g id="text_28">
    <!-- PerfForesightConsumerType -->
    <defs>
     <path d="M 9.8125 72.90625 
L 51.703125 72.90625 
L 51.703125 64.59375 
L 19.671875 64.59375 
L 19.671875 43.109375 
L 48.578125 43.109375 
L 48.578125 34.8125 
L 19.671875 34.8125 
L 19.671875 0 
L 9.8125 0 
z
" id="DejaVuSans-70"/>
     <path d="M 45.40625 27.984375 
Q 45.40625 37.75 41.375 43.109375 
Q 37.359375 48.484375 30.078125 48.484375 
Q 22.859375 48.484375 18.828125 43.109375 
Q 14.796875 37.75 14.796875 27.984375 
Q 14.796875 18.265625 18.828125 12.890625 
Q 22.859375 7.515625 30.078125 7.515625 
Q 37.359375 7.515625 41.375 12.890625 
Q 45.40625 18.265625 45.40625 27.984375 
z
M 54.390625 6.78125 
Q 54.390625 -7.171875 48.1875 -13.984375 
Q 42 -20.796875 29.203125 -20.796875 
Q 24.46875 -20.796875 20.265625 -20.09375 
Q 16.0625 -19.390625 12.109375 -17.921875 
L 12.109375 -9.1875 
Q 16.0625 -11.328125 19.921875 -12.34375 
Q 23.78125 -13.375 27.78125 -13.375 
Q 36.625 -13.375 41.015625 -8.765625 
Q 45.40625 -4.15625 45.40625 5.171875 
L 45.40625 9.625 
Q 42.625 4.78125 38.28125 2.390625 
Q 33.9375 0 27.875 0 
Q 17.828125 0 11.671875 7.65625 
Q 5.515625 15.328125 5.515625 27.984375 
Q 5.515625 40.671875 11.671875 48.328125 
Q 17.828125 56 27.875 56 
Q 33.9375 56 38.28125 53.609375 
Q 42.625 51.21875 45.40625 46.390625 
L 45.40625 54.6875 
L 54.390625 54.6875 
z
" id="DejaVuSans-103"/>
     <path d="M 54.890625 33.015625 
L 54.890625 0 
L 45.90625 0 
L 45.90625 32.71875 
Q 45.90625 40.484375 42.875 44.328125 
Q 39.84375 48.1875 33.796875 48.1875 
Q 26.515625 48.1875 22.3125 43.546875 
Q 18.109375 38.921875 18.109375 30.90625 
L 18.109375 0 
L 9.078125 0 
L 9.078125 75.984375 
L 18.109375 75.984375 
L 18.109375 46.1875 
Q 21.34375 51.125 25.703125 53.5625 
Q 30.078125 56 35.796875 56 
Q 45.21875 56 50.046875 50.171875 
Q 54.890625 44.34375 54.890625 33.015625 
z
" id="DejaVuSans-104"/>
    </defs>
    <g transform="translate(277.457787 38.50888)scale(0.12 -0.12)">
     <use xlink:href="#DejaVuSans-80"/>
     <use x="60.255859" xlink:href="#DejaVuSans-101"/>
     <use x="121.779297" xlink:href="#DejaVuSans-114"/>
     <use x="162.892578" xlink:href="#DejaVuSans-102"/>
     <use x="198.097656" xlink:href="#DejaVuSans-70"/>
     <use x="255.570312" xlink:href="#DejaVuSans-111"/>
     <use x="316.751953" xlink:href="#DejaVuSans-114"/>
     <use x="357.833984" xlink:href="#DejaVuSans-101"/>
     <use x="419.357422" xlink:href="#DejaVuSans-115"/>
     <use x="471.457031" xlink:href="#DejaVuSans-105"/>
     <use x="499.240234" xlink:href="#DejaVuSans-103"/>
     <use x="562.716797" xlink:href="#DejaVuSans-104"/>
     <use x="626.095703" xlink:href="#DejaVuSans-116"/>
     <use x="665.304688" xlink:href="#DejaVuSans-67"/>
     <use x="735.128906" xlink:href="#DejaVuSans-111"/>
     <use x="796.310547" xlink:href="#DejaVuSans-110"/>
     <use x="859.689453" xlink:href="#DejaVuSans-115"/>
     <use x="911.789062" xlink:href="#DejaVuSans-117"/>
     <use x="975.167969" xlink:href="#DejaVuSans-109"/>
     <use x="1072.580078" xlink:href="#DejaVuSans-101"/>
     <use x="1134.103516" xlink:href="#DejaVuSans-114"/>
     <use x="1175.216797" xlink:href="#DejaVuSans-84"/>
     <use x="1236.066406" xlink:href="#DejaVuSans-121"/>
     <use x="1295.246094" xlink:href="#DejaVuSans-112"/>
     <use x="1358.722656" xlink:href="#DejaVuSans-101"/>
    </g>
   </g>
   <g id="legend_1">
    <g id="patch_12">
     <path d="M 353.734261 194.709987 
L 438.899886 194.709987 
Q 440.899886 194.709987 440.899886 192.709987 
L 440.899886 149.675612 
Q 440.899886 147.675612 438.899886 147.675612 
L 353.734261 147.675612 
Q 351.734261 147.675612 351.734261 149.675612 
L 351.734261 192.709987 
Q 351.734261 194.709987 353.734261 194.709987 
z
" style="fill:#ffffff;opacity:0.8;stroke:#cccccc;stroke-linejoin:miter;"/>
    </g>
    <g id="line2d_51">
     <path d="M 355.734261 155.77405 
L 375.734261 155.77405 
" style="fill:none;stroke:#1f77b4;stroke-linecap:square;stroke-width:1.5;"/>
    </g>
    <g id="line2d_52"/>
    <g id="text_29">
     <!-- Age = 60 -->
     <defs>
      <path d="M 10.59375 45.40625 
L 73.1875 45.40625 
L 73.1875 37.203125 
L 10.59375 37.203125 
z
M 10.59375 25.484375 
L 73.1875 25.484375 
L 73.1875 17.1875 
L 10.59375 17.1875 
z
" id="DejaVuSans-61"/>
      <path d="M 33.015625 40.375 
Q 26.375 40.375 22.484375 35.828125 
Q 18.609375 31.296875 18.609375 23.390625 
Q 18.609375 15.53125 22.484375 10.953125 
Q 26.375 6.390625 33.015625 6.390625 
Q 39.65625 6.390625 43.53125 10.953125 
Q 47.40625 15.53125 47.40625 23.390625 
Q 47.40625 31.296875 43.53125 35.828125 
Q 39.65625 40.375 33.015625 40.375 
z
M 52.59375 71.296875 
L 52.59375 62.3125 
Q 48.875 64.0625 45.09375 64.984375 
Q 41.3125 65.921875 37.59375 65.921875 
Q 27.828125 65.921875 22.671875 59.328125 
Q 17.53125 52.734375 16.796875 39.40625 
Q 19.671875 43.65625 24.015625 45.921875 
Q 28.375 48.1875 33.59375 48.1875 
Q 44.578125 48.1875 50.953125 41.515625 
Q 57.328125 34.859375 57.328125 23.390625 
Q 57.328125 12.15625 50.6875 5.359375 
Q 44.046875 -1.421875 33.015625 -1.421875 
Q 20.359375 -1.421875 13.671875 8.265625 
Q 6.984375 17.96875 6.984375 36.375 
Q 6.984375 53.65625 15.1875 63.9375 
Q 23.390625 74.21875 37.203125 74.21875 
Q 40.921875 74.21875 44.703125 73.484375 
Q 48.484375 72.75 52.59375 71.296875 
z
" id="DejaVuSans-54"/>
     </defs>
     <g transform="translate(383.734261 159.27405)scale(0.1 -0.1)">
      <use xlink:href="#DejaVuSans-65"/>
      <use x="68.408203" xlink:href="#DejaVuSans-103"/>
      <use x="131.884766" xlink:href="#DejaVuSans-101"/>
      <use x="193.408203" xlink:href="#DejaVuSans-32"/>
      <use x="225.195312" xlink:href="#DejaVuSans-61"/>
      <use x="308.984375" xlink:href="#DejaVuSans-32"/>
      <use x="340.771484" xlink:href="#DejaVuSans-54"/>
      <use x="404.394531" xlink:href="#DejaVuSans-48"/>
     </g>
    </g>
    <g id="line2d_53">
     <path d="M 355.734261 170.452175 
L 375.734261 170.452175 
" style="fill:none;stroke:#ff7f0e;stroke-linecap:square;stroke-width:1.5;"/>
    </g>
    <g id="line2d_54"/>
    <g id="text_30">
     <!-- Age = 99 -->
     <defs>
      <path d="M 10.984375 1.515625 
L 10.984375 10.5 
Q 14.703125 8.734375 18.5 7.8125 
Q 22.3125 6.890625 25.984375 6.890625 
Q 35.75 6.890625 40.890625 13.453125 
Q 46.046875 20.015625 46.78125 33.40625 
Q 43.953125 29.203125 39.59375 26.953125 
Q 35.25 24.703125 29.984375 24.703125 
Q 19.046875 24.703125 12.671875 31.3125 
Q 6.296875 37.9375 6.296875 49.421875 
Q 6.296875 60.640625 12.9375 67.421875 
Q 19.578125 74.21875 30.609375 74.21875 
Q 43.265625 74.21875 49.921875 64.515625 
Q 56.59375 54.828125 56.59375 36.375 
Q 56.59375 19.140625 48.40625 8.859375 
Q 40.234375 -1.421875 26.421875 -1.421875 
Q 22.703125 -1.421875 18.890625 -0.6875 
Q 15.09375 0.046875 10.984375 1.515625 
z
M 30.609375 32.421875 
Q 37.25 32.421875 41.125 36.953125 
Q 45.015625 41.5 45.015625 49.421875 
Q 45.015625 57.28125 41.125 61.84375 
Q 37.25 66.40625 30.609375 66.40625 
Q 23.96875 66.40625 20.09375 61.84375 
Q 16.21875 57.28125 16.21875 49.421875 
Q 16.21875 41.5 20.09375 36.953125 
Q 23.96875 32.421875 30.609375 32.421875 
z
" id="DejaVuSans-57"/>
     </defs>
     <g transform="translate(383.734261 173.952175)scale(0.1 -0.1)">
      <use xlink:href="#DejaVuSans-65"/>
      <use x="68.408203" xlink:href="#DejaVuSans-103"/>
      <use x="131.884766" xlink:href="#DejaVuSans-101"/>
      <use x="193.408203" xlink:href="#DejaVuSans-32"/>
      <use x="225.195312" xlink:href="#DejaVuSans-61"/>
      <use x="308.984375" xlink:href="#DejaVuSans-32"/>
      <use x="340.771484" xlink:href="#DejaVuSans-57"/>
      <use x="404.394531" xlink:href="#DejaVuSans-57"/>
     </g>
    </g>
    <g id="line2d_55">
     <path d="M 355.734261 185.1303 
L 375.734261 185.1303 
" style="fill:none;stroke:#2ca02c;stroke-linecap:square;stroke-width:1.5;"/>
    </g>
    <g id="line2d_56"/>
    <g id="text_31">
     <!-- Age = 100 -->
     <g transform="translate(383.734261 188.6303)scale(0.1 -0.1)">
      <use xlink:href="#DejaVuSans-65"/>
      <use x="68.408203" xlink:href="#DejaVuSans-103"/>
      <use x="131.884766" xlink:href="#DejaVuSans-101"/>
      <use x="193.408203" xlink:href="#DejaVuSans-32"/>
      <use x="225.195312" xlink:href="#DejaVuSans-61"/>
      <use x="308.984375" xlink:href="#DejaVuSans-32"/>
      <use x="340.771484" xlink:href="#DejaVuSans-49"/>
      <use x="404.394531" xlink:href="#DejaVuSans-48"/>
      <use x="468.017578" xlink:href="#DejaVuSans-48"/>
     </g>
    </g>
   </g>
  </g>
  <g id="text_32">
   <!-- Consumption Comparisons with True Solution -->
   <defs>
    <path d="M 4.203125 54.6875 
L 13.1875 54.6875 
L 24.421875 12.015625 
L 35.59375 54.6875 
L 46.1875 54.6875 
L 57.421875 12.015625 
L 68.609375 54.6875 
L 77.59375 54.6875 
L 63.28125 0 
L 52.6875 0 
L 40.921875 44.828125 
L 29.109375 0 
L 18.5 0 
z
" id="DejaVuSans-119"/>
    <path d="M 53.515625 70.515625 
L 53.515625 60.890625 
Q 47.90625 63.578125 42.921875 64.890625 
Q 37.9375 66.21875 33.296875 66.21875 
Q 25.25 66.21875 20.875 63.09375 
Q 16.5 59.96875 16.5 54.203125 
Q 16.5 49.359375 19.40625 46.890625 
Q 22.3125 44.4375 30.421875 42.921875 
L 36.375 41.703125 
Q 47.40625 39.59375 52.65625 34.296875 
Q 57.90625 29 57.90625 20.125 
Q 57.90625 9.515625 50.796875 4.046875 
Q 43.703125 -1.421875 29.984375 -1.421875 
Q 24.8125 -1.421875 18.96875 -0.25 
Q 13.140625 0.921875 6.890625 3.21875 
L 6.890625 13.375 
Q 12.890625 10.015625 18.65625 8.296875 
Q 24.421875 6.59375 29.984375 6.59375 
Q 38.421875 6.59375 43.015625 9.90625 
Q 47.609375 13.234375 47.609375 19.390625 
Q 47.609375 24.75 44.3125 27.78125 
Q 41.015625 30.8125 33.5 32.328125 
L 27.484375 33.5 
Q 16.453125 35.6875 11.515625 40.375 
Q 6.59375 45.0625 6.59375 53.421875 
Q 6.59375 63.09375 13.40625 68.65625 
Q 20.21875 74.21875 32.171875 74.21875 
Q 37.3125 74.21875 42.625 73.28125 
Q 47.953125 72.359375 53.515625 70.515625 
z
" id="DejaVuSans-83"/>
   </defs>
   <g transform="translate(93.201563 16.030125)scale(0.12 -0.12)">
    <use xlink:href="#DejaVuSans-67"/>
    <use x="69.824219" xlink:href="#DejaVuSans-111"/>
    <use x="131.005859" xlink:href="#DejaVuSans-110"/>
    <use x="194.384766" xlink:href="#DejaVuSans-115"/>
    <use x="246.484375" xlink:href="#DejaVuSans-117"/>
    <use x="309.863281" xlink:href="#DejaVuSans-109"/>
    <use x="407.275391" xlink:href="#DejaVuSans-112"/>
    <use x="470.751953" xlink:href="#DejaVuSans-116"/>
    <use x="509.960938" xlink:href="#DejaVuSans-105"/>
    <use x="537.744141" xlink:href="#DejaVuSans-111"/>
    <use x="598.925781" xlink:href="#DejaVuSans-110"/>
    <use x="662.304688" xlink:href="#DejaVuSans-32"/>
    <use x="694.091797" xlink:href="#DejaVuSans-67"/>
    <use x="763.916016" xlink:href="#DejaVuSans-111"/>
    <use x="825.097656" xlink:href="#DejaVuSans-109"/>
    <use x="922.509766" xlink:href="#DejaVuSans-112"/>
    <use x="985.986328" xlink:href="#DejaVuSans-97"/>
    <use x="1047.265625" xlink:href="#DejaVuSans-114"/>
    <use x="1088.378906" xlink:href="#DejaVuSans-105"/>
    <use x="1116.162109" xlink:href="#DejaVuSans-115"/>
    <use x="1168.261719" xlink:href="#DejaVuSans-111"/>
    <use x="1229.443359" xlink:href="#DejaVuSans-110"/>
    <use x="1292.822266" xlink:href="#DejaVuSans-115"/>
    <use x="1344.921875" xlink:href="#DejaVuSans-32"/>
    <use x="1376.708984" xlink:href="#DejaVuSans-119"/>
    <use x="1458.496094" xlink:href="#DejaVuSans-105"/>
    <use x="1486.279297" xlink:href="#DejaVuSans-116"/>
    <use x="1525.488281" xlink:href="#DejaVuSans-104"/>
    <use x="1588.867188" xlink:href="#DejaVuSans-32"/>
    <use x="1620.654297" xlink:href="#DejaVuSans-84"/>
    <use x="1681.519531" xlink:href="#DejaVuSans-114"/>
    <use x="1722.632812" xlink:href="#DejaVuSans-117"/>
    <use x="1786.011719" xlink:href="#DejaVuSans-101"/>
    <use x="1847.535156" xlink:href="#DejaVuSans-32"/>
    <use x="1879.322266" xlink:href="#DejaVuSans-83"/>
    <use x="1942.798828" xlink:href="#DejaVuSans-111"/>
    <use x="2003.980469" xlink:href="#DejaVuSans-108"/>
    <use x="2031.763672" xlink:href="#DejaVuSans-117"/>
    <use x="2095.142578" xlink:href="#DejaVuSans-116"/>
    <use x="2134.351562" xlink:href="#DejaVuSans-105"/>
    <use x="2162.134766" xlink:href="#DejaVuSans-111"/>
    <use x="2223.316406" xlink:href="#DejaVuSans-110"/>
   </g>
  </g>
 </g>
 <defs>
  <clipPath id="p9847dcfc08">
   <rect height="230.3344" width="166.454199" x="46.64" y="56.0256"/>
  </clipPath>
  <clipPath id="p80275fd14d">
   <rect height="230.3344" width="166.454199" x="279.445687" y="56.0256"/>
  </clipPath>
 </defs>
</svg>
