<?xml version="1.0" encoding="utf-8" standalone="no"?>
<!DOCTYPE svg PUBLIC "-//W3C//DTD SVG 1.1//EN"
  "http://www.w3.org/Graphics/SVG/1.1/DTD/svg11.dtd">
<!-- Created with matplotlib (https://matplotlib.org/) -->
<svg height="288pt" version="1.1" viewBox="0 0 720 288" width="720pt" xmlns="http://www.w3.org/2000/svg" xmlns:xlink="http://www.w3.org/1999/xlink">
 <defs>
  <style type="text/css">
*{stroke-linecap:butt;stroke-linejoin:round;}
  </style>
 </defs>
 <g id="figure_1">
  <g id="patch_1">
   <path d="M 0 288 
L 720 288 
L 720 0 
L 0 0 
z
" style="fill:#ffffff;"/>
  </g>
  <g id="axes_1">
   <g id="patch_2">
    <path d="M 40.12 120.5216 
L 350.415 120.5216 
L 350.415 32.64 
L 40.12 32.64 
z
" style="fill:#ffffff;"/>
   </g>
   <g id="matplotlib.axis_1">
    <g id="xtick_1">
     <g id="line2d_1">
      <path clip-path="url(#pe9f201e69a)" d="M 51.403455 120.5216 
L 51.403455 32.64 
" style="fill:none;stroke:#b0b0b0;stroke-linecap:square;stroke-width:0.8;"/>
     </g>
     <g id="line2d_2">
      <defs>
       <path d="M 0 0 
L 0 3.5 
" id="m81fd0c679d" style="stroke:#000000;stroke-width:0.8;"/>
      </defs>
      <g>
       <use style="stroke:#000000;stroke-width:0.8;" x="51.403455" xlink:href="#m81fd0c679d" y="120.5216"/>
      </g>
     </g>
    </g>
    <g id="xtick_2">
     <g id="line2d_3">
      <path clip-path="url(#pe9f201e69a)" d="M 86.66425 120.5216 
L 86.66425 32.64 
" style="fill:none;stroke:#b0b0b0;stroke-linecap:square;stroke-width:0.8;"/>
     </g>
     <g id="line2d_4">
      <g>
       <use style="stroke:#000000;stroke-width:0.8;" x="86.66425" xlink:href="#m81fd0c679d" y="120.5216"/>
      </g>
     </g>
    </g>
    <g id="xtick_3">
     <g id="line2d_5">
      <path clip-path="url(#pe9f201e69a)" d="M 121.925045 120.5216 
L 121.925045 32.64 
" style="fill:none;stroke:#b0b0b0;stroke-linecap:square;stroke-width:0.8;"/>
     </g>
     <g id="line2d_6">
      <g>
       <use style="stroke:#000000;stroke-width:0.8;" x="121.925045" xlink:href="#m81fd0c679d" y="120.5216"/>
      </g>
     </g>
    </g>
    <g id="xtick_4">
     <g id="line2d_7">
      <path clip-path="url(#pe9f201e69a)" d="M 157.185841 120.5216 
L 157.185841 32.64 
" style="fill:none;stroke:#b0b0b0;stroke-linecap:square;stroke-width:0.8;"/>
     </g>
     <g id="line2d_8">
      <g>
       <use style="stroke:#000000;stroke-width:0.8;" x="157.185841" xlink:href="#m81fd0c679d" y="120.5216"/>
      </g>
     </g>
    </g>
    <g id="xtick_5">
     <g id="line2d_9">
      <path clip-path="url(#pe9f201e69a)" d="M 192.446636 120.5216 
L 192.446636 32.64 
" style="fill:none;stroke:#b0b0b0;stroke-linecap:square;stroke-width:0.8;"/>
     </g>
     <g id="line2d_10">
      <g>
       <use style="stroke:#000000;stroke-width:0.8;" x="192.446636" xlink:href="#m81fd0c679d" y="120.5216"/>
      </g>
     </g>
    </g>
    <g id="xtick_6">
     <g id="line2d_11">
      <path clip-path="url(#pe9f201e69a)" d="M 227.707432 120.5216 
L 227.707432 32.64 
" style="fill:none;stroke:#b0b0b0;stroke-linecap:square;stroke-width:0.8;"/>
     </g>
     <g id="line2d_12">
      <g>
       <use style="stroke:#000000;stroke-width:0.8;" x="227.707432" xlink:href="#m81fd0c679d" y="120.5216"/>
      </g>
     </g>
    </g>
    <g id="xtick_7">
     <g id="line2d_13">
      <path clip-path="url(#pe9f201e69a)" d="M 262.968227 120.5216 
L 262.968227 32.64 
" style="fill:none;stroke:#b0b0b0;stroke-linecap:square;stroke-width:0.8;"/>
     </g>
     <g id="line2d_14">
      <g>
       <use style="stroke:#000000;stroke-width:0.8;" x="262.968227" xlink:href="#m81fd0c679d" y="120.5216"/>
      </g>
     </g>
    </g>
    <g id="xtick_8">
     <g id="line2d_15">
      <path clip-path="url(#pe9f201e69a)" d="M 298.229023 120.5216 
L 298.229023 32.64 
" style="fill:none;stroke:#b0b0b0;stroke-linecap:square;stroke-width:0.8;"/>
     </g>
     <g id="line2d_16">
      <g>
       <use style="stroke:#000000;stroke-width:0.8;" x="298.229023" xlink:href="#m81fd0c679d" y="120.5216"/>
      </g>
     </g>
    </g>
    <g id="xtick_9">
     <g id="line2d_17">
      <path clip-path="url(#pe9f201e69a)" d="M 333.489818 120.5216 
L 333.489818 32.64 
" style="fill:none;stroke:#b0b0b0;stroke-linecap:square;stroke-width:0.8;"/>
     </g>
     <g id="line2d_18">
      <g>
       <use style="stroke:#000000;stroke-width:0.8;" x="333.489818" xlink:href="#m81fd0c679d" y="120.5216"/>
      </g>
     </g>
    </g>
   </g>
   <g id="matplotlib.axis_2">
    <g id="ytick_1">
     <g id="line2d_19">
      <path clip-path="url(#pe9f201e69a)" d="M 40.12 118.635371 
L 350.415 118.635371 
" style="fill:none;stroke:#b0b0b0;stroke-linecap:square;stroke-width:0.8;"/>
     </g>
     <g id="line2d_20">
      <defs>
       <path d="M 0 0 
L -3.5 0 
" id="m38d27d4732" style="stroke:#000000;stroke-width:0.8;"/>
      </defs>
      <g>
       <use style="stroke:#000000;stroke-width:0.8;" x="40.12" xlink:href="#m38d27d4732" y="118.635371"/>
      </g>
     </g>
     <g id="text_1">
      <!-- 0 -->
      <defs>
       <path d="M 31.78125 66.40625 
Q 24.171875 66.40625 20.328125 58.90625 
Q 16.5 51.421875 16.5 36.375 
Q 16.5 21.390625 20.328125 13.890625 
Q 24.171875 6.390625 31.78125 6.390625 
Q 39.453125 6.390625 43.28125 13.890625 
Q 47.125 21.390625 47.125 36.375 
Q 47.125 51.421875 43.28125 58.90625 
Q 39.453125 66.40625 31.78125 66.40625 
z
M 31.78125 74.21875 
Q 44.046875 74.21875 50.515625 64.515625 
Q 56.984375 54.828125 56.984375 36.375 
Q 56.984375 17.96875 50.515625 8.265625 
Q 44.046875 -1.421875 31.78125 -1.421875 
Q 19.53125 -1.421875 13.0625 8.265625 
Q 6.59375 17.96875 6.59375 36.375 
Q 6.59375 54.828125 13.0625 64.515625 
Q 19.53125 74.21875 31.78125 74.21875 
z
" id="DejaVuSans-48"/>
      </defs>
      <g transform="translate(26.7575 122.434589)scale(0.1 -0.1)">
       <use xlink:href="#DejaVuSans-48"/>
      </g>
     </g>
    </g>
    <g id="ytick_2">
     <g id="line2d_21">
      <path clip-path="url(#pe9f201e69a)" d="M 40.12 92.280511 
L 350.415 92.280511 
" style="fill:none;stroke:#b0b0b0;stroke-linecap:square;stroke-width:0.8;"/>
     </g>
     <g id="line2d_22">
      <g>
       <use style="stroke:#000000;stroke-width:0.8;" x="40.12" xlink:href="#m38d27d4732" y="92.280511"/>
      </g>
     </g>
     <g id="text_2">
      <!-- 50 -->
      <defs>
       <path d="M 10.796875 72.90625 
L 49.515625 72.90625 
L 49.515625 64.59375 
L 19.828125 64.59375 
L 19.828125 46.734375 
Q 21.96875 47.46875 24.109375 47.828125 
Q 26.265625 48.1875 28.421875 48.1875 
Q 40.625 48.1875 47.75 41.5 
Q 54.890625 34.8125 54.890625 23.390625 
Q 54.890625 11.625 47.5625 5.09375 
Q 40.234375 -1.421875 26.90625 -1.421875 
Q 22.3125 -1.421875 17.546875 -0.640625 
Q 12.796875 0.140625 7.71875 1.703125 
L 7.71875 11.625 
Q 12.109375 9.234375 16.796875 8.0625 
Q 21.484375 6.890625 26.703125 6.890625 
Q 35.15625 6.890625 40.078125 11.328125 
Q 45.015625 15.765625 45.015625 23.390625 
Q 45.015625 31 40.078125 35.4375 
Q 35.15625 39.890625 26.703125 39.890625 
Q 22.75 39.890625 18.8125 39.015625 
Q 14.890625 38.140625 10.796875 36.28125 
z
" id="DejaVuSans-53"/>
      </defs>
      <g transform="translate(20.395 96.079729)scale(0.1 -0.1)">
       <use xlink:href="#DejaVuSans-53"/>
       <use x="63.623047" xlink:href="#DejaVuSans-48"/>
      </g>
     </g>
    </g>
    <g id="ytick_3">
     <g id="line2d_23">
      <path clip-path="url(#pe9f201e69a)" d="M 40.12 65.925651 
L 350.415 65.925651 
" style="fill:none;stroke:#b0b0b0;stroke-linecap:square;stroke-width:0.8;"/>
     </g>
     <g id="line2d_24">
      <g>
       <use style="stroke:#000000;stroke-width:0.8;" x="40.12" xlink:href="#m38d27d4732" y="65.925651"/>
      </g>
     </g>
     <g id="text_3">
      <!-- 100 -->
      <defs>
       <path d="M 12.40625 8.296875 
L 28.515625 8.296875 
L 28.515625 63.921875 
L 10.984375 60.40625 
L 10.984375 69.390625 
L 28.421875 72.90625 
L 38.28125 72.90625 
L 38.28125 8.296875 
L 54.390625 8.296875 
L 54.390625 0 
L 12.40625 0 
z
" id="DejaVuSans-49"/>
      </defs>
      <g transform="translate(14.0325 69.72487)scale(0.1 -0.1)">
       <use xlink:href="#DejaVuSans-49"/>
       <use x="63.623047" xlink:href="#DejaVuSans-48"/>
       <use x="127.246094" xlink:href="#DejaVuSans-48"/>
      </g>
     </g>
    </g>
    <g id="ytick_4">
     <g id="line2d_25">
      <path clip-path="url(#pe9f201e69a)" d="M 40.12 39.570791 
L 350.415 39.570791 
" style="fill:none;stroke:#b0b0b0;stroke-linecap:square;stroke-width:0.8;"/>
     </g>
     <g id="line2d_26">
      <g>
       <use style="stroke:#000000;stroke-width:0.8;" x="40.12" xlink:href="#m38d27d4732" y="39.570791"/>
      </g>
     </g>
     <g id="text_4">
      <!-- 150 -->
      <g transform="translate(14.0325 43.37001)scale(0.1 -0.1)">
       <use xlink:href="#DejaVuSans-49"/>
       <use x="63.623047" xlink:href="#DejaVuSans-53"/>
       <use x="127.246094" xlink:href="#DejaVuSans-48"/>
      </g>
     </g>
    </g>
   </g>
   <g id="line2d_27">
    <path clip-path="url(#pe9f201e69a)" d="M 54.224318 116.526982 
L 64.097341 109.279395 
L 65.507773 108.752298 
L 66.918205 108.48875 
L 67.62342 108.225201 
L 68.328636 108.093427 
L 69.033852 107.829878 
L 69.739068 107.698104 
L 70.444284 107.434555 
L 71.1495 107.302781 
L 71.854716 107.039232 
L 73.265148 106.775684 
L 73.970364 106.512135 
L 74.67558 106.380361 
L 75.380795 106.116812 
L 76.086011 105.985038 
L 76.791227 105.721489 
L 78.201659 105.457941 
L 78.906875 105.194392 
L 79.612091 105.062618 
L 80.317307 104.799069 
L 81.727739 104.535521 
L 82.432955 104.271972 
L 83.13817 104.140198 
L 83.843386 103.876649 
L 84.548602 103.744875 
L 85.253818 103.481326 
L 85.959034 103.349552 
L 86.66425 104.008423 
L 87.369466 103.744875 
L 88.074682 103.349552 
L 88.779898 103.217778 
L 89.485114 102.822455 
L 90.895545 102.295357 
L 91.600761 101.900035 
L 92.305977 101.76826 
L 93.716409 101.241163 
L 95.126841 100.977614 
L 95.832057 100.714066 
L 97.242489 100.450517 
L 97.947705 100.055194 
L 98.65292 99.791646 
L 99.358136 100.055194 
L 102.179 99.001 
L 102.884216 99.001 
L 104.294648 98.473903 
L 105.70508 98.210354 
L 106.410295 97.946806 
L 107.115511 97.815031 
L 107.820727 97.551483 
L 108.525943 97.419708 
L 109.231159 97.15616 
L 109.936375 97.024385 
L 110.641591 96.760837 
L 112.052023 96.497288 
L 112.757239 96.23374 
L 113.462455 96.101965 
L 114.16767 95.838417 
L 115.578102 95.574868 
L 116.283318 95.31132 
L 116.988534 95.179545 
L 117.69375 94.915997 
L 119.104182 94.652448 
L 119.809398 94.388899 
L 120.514614 94.257125 
L 121.21983 93.993577 
L 121.925045 93.861802 
L 122.630261 93.598254 
L 124.040693 93.334705 
L 124.745909 93.071156 
L 125.451125 92.939382 
L 126.156341 92.675834 
L 126.861557 92.544059 
L 127.566773 92.280511 
L 128.977205 92.016962 
L 129.68242 91.753413 
L 130.387636 91.621639 
L 131.092852 91.358091 
L 132.503284 91.094542 
L 133.2085 90.830993 
L 133.913716 90.699219 
L 134.618932 90.43567 
L 136.029364 90.172122 
L 136.73458 89.908573 
L 137.439795 89.776799 
L 138.145011 89.51325 
L 138.850227 89.381476 
L 139.555443 89.117927 
L 140.965875 88.854379 
L 141.671091 88.59083 
L 142.376307 88.459056 
L 143.081523 88.195507 
L 143.786739 88.063733 
L 144.491955 87.800184 
L 145.902386 87.536636 
L 146.607602 87.273087 
L 147.312818 87.141313 
L 148.018034 86.877764 
L 149.428466 86.614216 
L 150.133682 86.350667 
L 150.838898 86.218893 
L 151.544114 85.955344 
L 152.954545 85.691796 
L 153.659761 85.428247 
L 154.364977 85.296473 
L 155.070193 85.032924 
L 155.775409 84.90115 
L 156.480625 84.637601 
L 157.891057 84.374053 
L 158.596273 84.110504 
L 159.301489 83.97873 
L 160.006705 83.715181 
L 161.417136 83.451633 
L 162.122352 83.188084 
L 162.827568 83.05631 
L 163.532784 82.792761 
L 164.238 82.660987 
L 164.943216 82.397438 
L 166.353648 82.13389 
L 167.058864 81.870341 
L 167.76408 81.738567 
L 168.469295 81.475018 
L 169.879727 81.21147 
L 170.584943 80.947921 
L 171.290159 80.816147 
L 171.995375 80.552598 
L 172.700591 80.420824 
L 173.405807 80.157275 
L 174.816239 79.893727 
L 175.521455 79.630178 
L 176.22667 79.498404 
L 176.931886 79.234855 
L 178.342318 78.971306 
L 179.047534 78.707758 
L 179.75275 78.575984 
L 180.457966 78.312435 
L 181.163182 78.180661 
L 181.868398 77.917112 
L 183.27883 77.653563 
L 183.984045 77.390015 
L 184.689261 77.258241 
L 185.394477 76.994692 
L 186.804909 76.731143 
L 187.510125 76.467595 
L 188.215341 76.33582 
L 188.920557 76.072272 
L 189.625773 75.940498 
L 190.330989 75.676949 
L 191.74142 75.4134 
L 192.446636 75.149852 
L 193.151852 75.018077 
L 193.857068 74.754529 
L 195.2675 74.49098 
L 195.972716 74.227432 
L 196.677932 74.095657 
L 197.383148 73.832109 
L 198.088364 73.700334 
L 198.79358 73.436786 
L 200.204011 73.173237 
L 200.909227 72.909689 
L 201.614443 72.777914 
L 202.319659 72.514366 
L 203.730091 72.250817 
L 204.435307 71.987269 
L 205.140523 71.855494 
L 205.845739 71.591946 
L 206.550955 71.460171 
L 207.25617 71.196623 
L 208.666602 70.933074 
L 209.371818 70.669526 
L 210.077034 70.537751 
L 210.78225 70.274203 
L 212.192682 70.010654 
L 212.897898 69.747105 
L 213.603114 69.615331 
L 214.30833 69.351783 
L 215.013545 69.220008 
L 215.718761 68.95646 
L 217.129193 68.692911 
L 217.834409 68.429362 
L 218.539625 68.297588 
L 219.244841 68.03404 
L 220.655273 67.770491 
L 221.360489 67.506942 
L 222.065705 67.375168 
L 222.77092 67.111619 
L 223.476136 66.979845 
L 224.181352 66.716297 
L 225.591784 66.452748 
L 226.297 66.189199 
L 227.002216 66.057425 
L 227.707432 65.793876 
L 229.117864 65.530328 
L 229.82308 65.266779 
L 230.528295 65.135005 
L 231.233511 64.871456 
L 231.938727 64.739682 
L 232.643943 64.476133 
L 234.054375 64.212585 
L 234.759591 63.949036 
L 235.464807 63.817262 
L 236.170023 63.553713 
L 237.580455 63.290165 
L 238.28567 63.026616 
L 238.990886 62.894842 
L 239.696102 62.631293 
L 240.401318 62.499519 
L 241.106534 62.23597 
L 242.516966 61.972422 
L 243.222182 61.708873 
L 243.927398 61.577099 
L 244.632614 61.31355 
L 246.043045 61.050002 
L 246.748261 60.786453 
L 247.453477 60.654679 
L 248.158693 60.39113 
L 248.863909 60.259356 
L 249.569125 59.995807 
L 250.979557 59.732259 
L 251.684773 59.46871 
L 252.389989 59.336936 
L 253.095205 59.073387 
L 254.505636 58.809839 
L 255.210852 58.54629 
L 255.916068 58.414516 
L 256.621284 58.150967 
L 257.3265 58.019193 
L 258.031716 57.755644 
L 259.442148 57.492096 
L 260.147364 57.228547 
L 260.85258 57.096773 
L 261.557795 56.833224 
L 262.968227 56.569675 
L 263.673443 56.306127 
L 264.378659 56.174353 
L 265.083875 55.910804 
L 265.789091 55.77903 
L 266.494307 55.515481 
L 267.904739 55.251932 
L 268.609955 54.988384 
L 269.31517 54.85661 
L 270.020386 54.593061 
L 271.430818 54.329512 
L 272.136034 54.065964 
L 272.84125 53.934189 
L 273.546466 53.670641 
L 274.251682 53.538867 
L 274.956898 53.275318 
L 276.36733 53.011769 
L 277.072545 52.748221 
L 277.777761 52.616446 
L 278.482977 52.352898 
L 279.893409 52.089349 
L 280.598625 51.825801 
L 281.303841 51.694026 
L 282.009057 51.430478 
L 282.714273 51.298704 
L 283.419489 51.035155 
L 284.82992 50.771606 
L 285.535136 50.508058 
L 286.240352 50.376283 
L 286.945568 50.112735 
L 288.356 49.849186 
L 289.061216 49.585638 
L 289.766432 49.453863 
L 290.471648 49.190315 
L 291.176864 49.05854 
L 291.88208 48.794992 
L 293.292511 48.531443 
L 293.997727 48.267895 
L 294.702943 48.13612 
L 295.408159 47.872572 
L 296.818591 47.609023 
L 297.523807 47.345475 
L 298.229023 47.2137 
L 298.934239 46.950152 
L 299.639455 46.818377 
L 300.34467 46.554829 
L 301.755102 46.29128 
L 302.460318 46.027732 
L 303.165534 45.895957 
L 303.87075 45.632409 
L 305.281182 45.36886 
L 305.986398 45.105311 
L 306.691614 44.973537 
L 307.39683 44.709989 
L 308.102045 44.578214 
L 308.807261 44.314666 
L 310.217693 44.051117 
L 310.922909 43.787568 
L 311.628125 43.655794 
L 312.333341 43.392246 
L 313.743773 43.128697 
L 314.448989 42.865148 
L 315.154205 42.733374 
L 315.85942 42.469825 
L 316.564636 42.338051 
L 317.269852 42.074503 
L 318.680284 41.810954 
L 319.3855 41.547405 
L 320.090716 41.415631 
L 320.795932 41.152082 
L 322.206364 40.888534 
L 322.91158 40.624985 
L 323.616795 40.493211 
L 324.322011 40.229662 
L 325.027227 40.097888 
L 325.732443 39.834339 
L 327.142875 39.570791 
L 327.848091 39.307242 
L 328.553307 39.175468 
L 329.258523 38.911919 
L 330.668955 38.648371 
L 331.37417 38.384822 
L 332.079386 38.253048 
L 332.784602 37.989499 
L 333.489818 37.857725 
L 334.195034 37.594176 
L 335.605466 37.330628 
L 336.310682 37.067079 
L 336.310682 37.067079 
" style="fill:none;stroke:#1f77b4;stroke-linecap:square;stroke-width:1.5;"/>
   </g>
   <g id="line2d_28">
    <path clip-path="url(#pe9f201e69a)" d="M 54.224318 116.526982 
L 64.097341 109.276872 
L 66.212989 108.632002 
L 83.843386 103.836227 
L 336.310682 36.634618 
L 336.310682 36.634618 
" style="fill:none;stroke:#ff7f0e;stroke-linecap:square;stroke-width:1.5;"/>
   </g>
   <g id="patch_3">
    <path d="M 40.12 120.5216 
L 40.12 32.64 
" style="fill:none;stroke:#000000;stroke-linecap:square;stroke-linejoin:miter;stroke-width:0.8;"/>
   </g>
   <g id="patch_4">
    <path d="M 350.415 120.5216 
L 350.415 32.64 
" style="fill:none;stroke:#000000;stroke-linecap:square;stroke-linejoin:miter;stroke-width:0.8;"/>
   </g>
   <g id="patch_5">
    <path d="M 40.12 120.5216 
L 350.415 120.5216 
" style="fill:none;stroke:#000000;stroke-linecap:square;stroke-linejoin:miter;stroke-width:0.8;"/>
   </g>
   <g id="patch_6">
    <path d="M 40.12 32.64 
L 350.415 32.64 
" style="fill:none;stroke:#000000;stroke-linecap:square;stroke-linejoin:miter;stroke-width:0.8;"/>
   </g>
   <g id="text_5">
    <!-- Cons. Functions -->
    <defs>
     <path d="M 64.40625 67.28125 
L 64.40625 56.890625 
Q 59.421875 61.53125 53.78125 63.8125 
Q 48.140625 66.109375 41.796875 66.109375 
Q 29.296875 66.109375 22.65625 58.46875 
Q 16.015625 50.828125 16.015625 36.375 
Q 16.015625 21.96875 22.65625 14.328125 
Q 29.296875 6.6875 41.796875 6.6875 
Q 48.140625 6.6875 53.78125 8.984375 
Q 59.421875 11.28125 64.40625 15.921875 
L 64.40625 5.609375 
Q 59.234375 2.09375 53.4375 0.328125 
Q 47.65625 -1.421875 41.21875 -1.421875 
Q 24.65625 -1.421875 15.125 8.703125 
Q 5.609375 18.84375 5.609375 36.375 
Q 5.609375 53.953125 15.125 64.078125 
Q 24.65625 74.21875 41.21875 74.21875 
Q 47.75 74.21875 53.53125 72.484375 
Q 59.328125 70.75 64.40625 67.28125 
z
" id="DejaVuSans-67"/>
     <path d="M 30.609375 48.390625 
Q 23.390625 48.390625 19.1875 42.75 
Q 14.984375 37.109375 14.984375 27.296875 
Q 14.984375 17.484375 19.15625 11.84375 
Q 23.34375 6.203125 30.609375 6.203125 
Q 37.796875 6.203125 41.984375 11.859375 
Q 46.1875 17.53125 46.1875 27.296875 
Q 46.1875 37.015625 41.984375 42.703125 
Q 37.796875 48.390625 30.609375 48.390625 
z
M 30.609375 56 
Q 42.328125 56 49.015625 48.375 
Q 55.71875 40.765625 55.71875 27.296875 
Q 55.71875 13.875 49.015625 6.21875 
Q 42.328125 -1.421875 30.609375 -1.421875 
Q 18.84375 -1.421875 12.171875 6.21875 
Q 5.515625 13.875 5.515625 27.296875 
Q 5.515625 40.765625 12.171875 48.375 
Q 18.84375 56 30.609375 56 
z
" id="DejaVuSans-111"/>
     <path d="M 54.890625 33.015625 
L 54.890625 0 
L 45.90625 0 
L 45.90625 32.71875 
Q 45.90625 40.484375 42.875 44.328125 
Q 39.84375 48.1875 33.796875 48.1875 
Q 26.515625 48.1875 22.3125 43.546875 
Q 18.109375 38.921875 18.109375 30.90625 
L 18.109375 0 
L 9.078125 0 
L 9.078125 54.6875 
L 18.109375 54.6875 
L 18.109375 46.1875 
Q 21.34375 51.125 25.703125 53.5625 
Q 30.078125 56 35.796875 56 
Q 45.21875 56 50.046875 50.171875 
Q 54.890625 44.34375 54.890625 33.015625 
z
" id="DejaVuSans-110"/>
     <path d="M 44.28125 53.078125 
L 44.28125 44.578125 
Q 40.484375 46.53125 36.375 47.5 
Q 32.28125 48.484375 27.875 48.484375 
Q 21.1875 48.484375 17.84375 46.4375 
Q 14.5 44.390625 14.5 40.28125 
Q 14.5 37.15625 16.890625 35.375 
Q 19.28125 33.59375 26.515625 31.984375 
L 29.59375 31.296875 
Q 39.15625 29.25 43.1875 25.515625 
Q 47.21875 21.78125 47.21875 15.09375 
Q 47.21875 7.46875 41.1875 3.015625 
Q 35.15625 -1.421875 24.609375 -1.421875 
Q 20.21875 -1.421875 15.453125 -0.5625 
Q 10.6875 0.296875 5.421875 2 
L 5.421875 11.28125 
Q 10.40625 8.6875 15.234375 7.390625 
Q 20.0625 6.109375 24.8125 6.109375 
Q 31.15625 6.109375 34.5625 8.28125 
Q 37.984375 10.453125 37.984375 14.40625 
Q 37.984375 18.0625 35.515625 20.015625 
Q 33.0625 21.96875 24.703125 23.78125 
L 21.578125 24.515625 
Q 13.234375 26.265625 9.515625 29.90625 
Q 5.8125 33.546875 5.8125 39.890625 
Q 5.8125 47.609375 11.28125 51.796875 
Q 16.75 56 26.8125 56 
Q 31.78125 56 36.171875 55.265625 
Q 40.578125 54.546875 44.28125 53.078125 
z
" id="DejaVuSans-115"/>
     <path d="M 10.6875 12.40625 
L 21 12.40625 
L 21 0 
L 10.6875 0 
z
" id="DejaVuSans-46"/>
     <path id="DejaVuSans-32"/>
     <path d="M 9.8125 72.90625 
L 51.703125 72.90625 
L 51.703125 64.59375 
L 19.671875 64.59375 
L 19.671875 43.109375 
L 48.578125 43.109375 
L 48.578125 34.8125 
L 19.671875 34.8125 
L 19.671875 0 
L 9.8125 0 
z
" id="DejaVuSans-70"/>
     <path d="M 8.5 21.578125 
L 8.5 54.6875 
L 17.484375 54.6875 
L 17.484375 21.921875 
Q 17.484375 14.15625 20.5 10.265625 
Q 23.53125 6.390625 29.59375 6.390625 
Q 36.859375 6.390625 41.078125 11.03125 
Q 45.3125 15.671875 45.3125 23.6875 
L 45.3125 54.6875 
L 54.296875 54.6875 
L 54.296875 0 
L 45.3125 0 
L 45.3125 8.40625 
Q 42.046875 3.421875 37.71875 1 
Q 33.40625 -1.421875 27.6875 -1.421875 
Q 18.265625 -1.421875 13.375 4.4375 
Q 8.5 10.296875 8.5 21.578125 
z
M 31.109375 56 
z
" id="DejaVuSans-117"/>
     <path d="M 48.78125 52.59375 
L 48.78125 44.1875 
Q 44.96875 46.296875 41.140625 47.34375 
Q 37.3125 48.390625 33.40625 48.390625 
Q 24.65625 48.390625 19.8125 42.84375 
Q 14.984375 37.3125 14.984375 27.296875 
Q 14.984375 17.28125 19.8125 11.734375 
Q 24.65625 6.203125 33.40625 6.203125 
Q 37.3125 6.203125 41.140625 7.25 
Q 44.96875 8.296875 48.78125 10.40625 
L 48.78125 2.09375 
Q 45.015625 0.34375 40.984375 -0.53125 
Q 36.96875 -1.421875 32.421875 -1.421875 
Q 20.0625 -1.421875 12.78125 6.34375 
Q 5.515625 14.109375 5.515625 27.296875 
Q 5.515625 40.671875 12.859375 48.328125 
Q 20.21875 56 33.015625 56 
Q 37.15625 56 41.109375 55.140625 
Q 45.0625 54.296875 48.78125 52.59375 
z
" id="DejaVuSans-99"/>
     <path d="M 18.3125 70.21875 
L 18.3125 54.6875 
L 36.8125 54.6875 
L 36.8125 47.703125 
L 18.3125 47.703125 
L 18.3125 18.015625 
Q 18.3125 11.328125 20.140625 9.421875 
Q 21.96875 7.515625 27.59375 7.515625 
L 36.8125 7.515625 
L 36.8125 0 
L 27.59375 0 
Q 17.1875 0 13.234375 3.875 
Q 9.28125 7.765625 9.28125 18.015625 
L 9.28125 47.703125 
L 2.6875 47.703125 
L 2.6875 54.6875 
L 9.28125 54.6875 
L 9.28125 70.21875 
z
" id="DejaVuSans-116"/>
     <path d="M 9.421875 54.6875 
L 18.40625 54.6875 
L 18.40625 0 
L 9.421875 0 
z
M 9.421875 75.984375 
L 18.40625 75.984375 
L 18.40625 64.59375 
L 9.421875 64.59375 
z
" id="DejaVuSans-105"/>
    </defs>
    <g transform="translate(147.695938 26.64)scale(0.12 -0.12)">
     <use xlink:href="#DejaVuSans-67"/>
     <use x="69.824219" xlink:href="#DejaVuSans-111"/>
     <use x="131.005859" xlink:href="#DejaVuSans-110"/>
     <use x="194.384766" xlink:href="#DejaVuSans-115"/>
     <use x="246.484375" xlink:href="#DejaVuSans-46"/>
     <use x="278.271484" xlink:href="#DejaVuSans-32"/>
     <use x="310.058594" xlink:href="#DejaVuSans-70"/>
     <use x="367.5" xlink:href="#DejaVuSans-117"/>
     <use x="430.878906" xlink:href="#DejaVuSans-110"/>
     <use x="494.257812" xlink:href="#DejaVuSans-99"/>
     <use x="549.238281" xlink:href="#DejaVuSans-116"/>
     <use x="588.447266" xlink:href="#DejaVuSans-105"/>
     <use x="616.230469" xlink:href="#DejaVuSans-111"/>
     <use x="677.412109" xlink:href="#DejaVuSans-110"/>
     <use x="740.791016" xlink:href="#DejaVuSans-115"/>
    </g>
   </g>
   <g id="legend_1">
    <g id="patch_7">
     <path d="M 47.12 69.99625 
L 106.987188 69.99625 
Q 108.987188 69.99625 108.987188 67.99625 
L 108.987188 39.64 
Q 108.987188 37.64 106.987188 37.64 
L 47.12 37.64 
Q 45.12 37.64 45.12 39.64 
L 45.12 67.99625 
Q 45.12 69.99625 47.12 69.99625 
z
" style="fill:#ffffff;opacity:0.8;stroke:#cccccc;stroke-linejoin:miter;"/>
    </g>
    <g id="line2d_29">
     <path d="M 49.12 45.738438 
L 69.12 45.738438 
" style="fill:none;stroke:#1f77b4;stroke-linecap:square;stroke-width:1.5;"/>
    </g>
    <g id="line2d_30"/>
    <g id="text_6">
     <!-- CGM -->
     <defs>
      <path d="M 59.515625 10.40625 
L 59.515625 29.984375 
L 43.40625 29.984375 
L 43.40625 38.09375 
L 69.28125 38.09375 
L 69.28125 6.78125 
Q 63.578125 2.734375 56.6875 0.65625 
Q 49.8125 -1.421875 42 -1.421875 
Q 24.90625 -1.421875 15.25 8.5625 
Q 5.609375 18.5625 5.609375 36.375 
Q 5.609375 54.25 15.25 64.234375 
Q 24.90625 74.21875 42 74.21875 
Q 49.125 74.21875 55.546875 72.453125 
Q 61.96875 70.703125 67.390625 67.28125 
L 67.390625 56.78125 
Q 61.921875 61.421875 55.765625 63.765625 
Q 49.609375 66.109375 42.828125 66.109375 
Q 29.4375 66.109375 22.71875 58.640625 
Q 16.015625 51.171875 16.015625 36.375 
Q 16.015625 21.625 22.71875 14.15625 
Q 29.4375 6.6875 42.828125 6.6875 
Q 48.046875 6.6875 52.140625 7.59375 
Q 56.25 8.5 59.515625 10.40625 
z
" id="DejaVuSans-71"/>
      <path d="M 9.8125 72.90625 
L 24.515625 72.90625 
L 43.109375 23.296875 
L 61.8125 72.90625 
L 76.515625 72.90625 
L 76.515625 0 
L 66.890625 0 
L 66.890625 64.015625 
L 48.09375 14.015625 
L 38.1875 14.015625 
L 19.390625 64.015625 
L 19.390625 0 
L 9.8125 0 
z
" id="DejaVuSans-77"/>
     </defs>
     <g transform="translate(77.12 49.238438)scale(0.1 -0.1)">
      <use xlink:href="#DejaVuSans-67"/>
      <use x="69.824219" xlink:href="#DejaVuSans-71"/>
      <use x="147.314453" xlink:href="#DejaVuSans-77"/>
     </g>
    </g>
    <g id="line2d_31">
     <path d="M 49.12 60.416563 
L 69.12 60.416563 
" style="fill:none;stroke:#ff7f0e;stroke-linecap:square;stroke-width:1.5;"/>
    </g>
    <g id="line2d_32"/>
    <g id="text_7">
     <!-- HARK -->
     <defs>
      <path d="M 9.8125 72.90625 
L 19.671875 72.90625 
L 19.671875 43.015625 
L 55.515625 43.015625 
L 55.515625 72.90625 
L 65.375 72.90625 
L 65.375 0 
L 55.515625 0 
L 55.515625 34.71875 
L 19.671875 34.71875 
L 19.671875 0 
L 9.8125 0 
z
" id="DejaVuSans-72"/>
      <path d="M 34.1875 63.1875 
L 20.796875 26.90625 
L 47.609375 26.90625 
z
M 28.609375 72.90625 
L 39.796875 72.90625 
L 67.578125 0 
L 57.328125 0 
L 50.6875 18.703125 
L 17.828125 18.703125 
L 11.1875 0 
L 0.78125 0 
z
" id="DejaVuSans-65"/>
      <path d="M 44.390625 34.1875 
Q 47.5625 33.109375 50.5625 29.59375 
Q 53.5625 26.078125 56.59375 19.921875 
L 66.609375 0 
L 56 0 
L 46.6875 18.703125 
Q 43.0625 26.03125 39.671875 28.421875 
Q 36.28125 30.8125 30.421875 30.8125 
L 19.671875 30.8125 
L 19.671875 0 
L 9.8125 0 
L 9.8125 72.90625 
L 32.078125 72.90625 
Q 44.578125 72.90625 50.734375 67.671875 
Q 56.890625 62.453125 56.890625 51.90625 
Q 56.890625 45.015625 53.6875 40.46875 
Q 50.484375 35.9375 44.390625 34.1875 
z
M 19.671875 64.796875 
L 19.671875 38.921875 
L 32.078125 38.921875 
Q 39.203125 38.921875 42.84375 42.21875 
Q 46.484375 45.515625 46.484375 51.90625 
Q 46.484375 58.296875 42.84375 61.546875 
Q 39.203125 64.796875 32.078125 64.796875 
z
" id="DejaVuSans-82"/>
      <path d="M 9.8125 72.90625 
L 19.671875 72.90625 
L 19.671875 42.09375 
L 52.390625 72.90625 
L 65.09375 72.90625 
L 28.90625 38.921875 
L 67.671875 0 
L 54.6875 0 
L 19.671875 35.109375 
L 19.671875 0 
L 9.8125 0 
z
" id="DejaVuSans-75"/>
     </defs>
     <g transform="translate(77.12 63.916563)scale(0.1 -0.1)">
      <use xlink:href="#DejaVuSans-72"/>
      <use x="75.195312" xlink:href="#DejaVuSans-65"/>
      <use x="143.603516" xlink:href="#DejaVuSans-82"/>
      <use x="213.085938" xlink:href="#DejaVuSans-75"/>
     </g>
    </g>
   </g>
  </g>
  <g id="axes_2">
   <g id="patch_8">
    <path d="M 398.905 120.5216 
L 709.2 120.5216 
L 709.2 32.64 
L 398.905 32.64 
z
" style="fill:#ffffff;"/>
   </g>
   <g id="matplotlib.axis_3">
    <g id="xtick_10">
     <g id="line2d_33">
      <path clip-path="url(#p9810b81543)" d="M 410.188455 120.5216 
L 410.188455 32.64 
" style="fill:none;stroke:#b0b0b0;stroke-linecap:square;stroke-width:0.8;"/>
     </g>
     <g id="line2d_34">
      <g>
       <use style="stroke:#000000;stroke-width:0.8;" x="410.188455" xlink:href="#m81fd0c679d" y="120.5216"/>
      </g>
     </g>
    </g>
    <g id="xtick_11">
     <g id="line2d_35">
      <path clip-path="url(#p9810b81543)" d="M 445.44925 120.5216 
L 445.44925 32.64 
" style="fill:none;stroke:#b0b0b0;stroke-linecap:square;stroke-width:0.8;"/>
     </g>
     <g id="line2d_36">
      <g>
       <use style="stroke:#000000;stroke-width:0.8;" x="445.44925" xlink:href="#m81fd0c679d" y="120.5216"/>
      </g>
     </g>
    </g>
    <g id="xtick_12">
     <g id="line2d_37">
      <path clip-path="url(#p9810b81543)" d="M 480.710045 120.5216 
L 480.710045 32.64 
" style="fill:none;stroke:#b0b0b0;stroke-linecap:square;stroke-width:0.8;"/>
     </g>
     <g id="line2d_38">
      <g>
       <use style="stroke:#000000;stroke-width:0.8;" x="480.710045" xlink:href="#m81fd0c679d" y="120.5216"/>
      </g>
     </g>
    </g>
    <g id="xtick_13">
     <g id="line2d_39">
      <path clip-path="url(#p9810b81543)" d="M 515.970841 120.5216 
L 515.970841 32.64 
" style="fill:none;stroke:#b0b0b0;stroke-linecap:square;stroke-width:0.8;"/>
     </g>
     <g id="line2d_40">
      <g>
       <use style="stroke:#000000;stroke-width:0.8;" x="515.970841" xlink:href="#m81fd0c679d" y="120.5216"/>
      </g>
     </g>
    </g>
    <g id="xtick_14">
     <g id="line2d_41">
      <path clip-path="url(#p9810b81543)" d="M 551.231636 120.5216 
L 551.231636 32.64 
" style="fill:none;stroke:#b0b0b0;stroke-linecap:square;stroke-width:0.8;"/>
     </g>
     <g id="line2d_42">
      <g>
       <use style="stroke:#000000;stroke-width:0.8;" x="551.231636" xlink:href="#m81fd0c679d" y="120.5216"/>
      </g>
     </g>
    </g>
    <g id="xtick_15">
     <g id="line2d_43">
      <path clip-path="url(#p9810b81543)" d="M 586.492432 120.5216 
L 586.492432 32.64 
" style="fill:none;stroke:#b0b0b0;stroke-linecap:square;stroke-width:0.8;"/>
     </g>
     <g id="line2d_44">
      <g>
       <use style="stroke:#000000;stroke-width:0.8;" x="586.492432" xlink:href="#m81fd0c679d" y="120.5216"/>
      </g>
     </g>
    </g>
    <g id="xtick_16">
     <g id="line2d_45">
      <path clip-path="url(#p9810b81543)" d="M 621.753227 120.5216 
L 621.753227 32.64 
" style="fill:none;stroke:#b0b0b0;stroke-linecap:square;stroke-width:0.8;"/>
     </g>
     <g id="line2d_46">
      <g>
       <use style="stroke:#000000;stroke-width:0.8;" x="621.753227" xlink:href="#m81fd0c679d" y="120.5216"/>
      </g>
     </g>
    </g>
    <g id="xtick_17">
     <g id="line2d_47">
      <path clip-path="url(#p9810b81543)" d="M 657.014023 120.5216 
L 657.014023 32.64 
" style="fill:none;stroke:#b0b0b0;stroke-linecap:square;stroke-width:0.8;"/>
     </g>
     <g id="line2d_48">
      <g>
       <use style="stroke:#000000;stroke-width:0.8;" x="657.014023" xlink:href="#m81fd0c679d" y="120.5216"/>
      </g>
     </g>
    </g>
    <g id="xtick_18">
     <g id="line2d_49">
      <path clip-path="url(#p9810b81543)" d="M 692.274818 120.5216 
L 692.274818 32.64 
" style="fill:none;stroke:#b0b0b0;stroke-linecap:square;stroke-width:0.8;"/>
     </g>
     <g id="line2d_50">
      <g>
       <use style="stroke:#000000;stroke-width:0.8;" x="692.274818" xlink:href="#m81fd0c679d" y="120.5216"/>
      </g>
     </g>
    </g>
   </g>
   <g id="matplotlib.axis_4">
    <g id="ytick_5">
     <g id="line2d_51">
      <path clip-path="url(#p9810b81543)" d="M 398.905 85.602928 
L 709.2 85.602928 
" style="fill:none;stroke:#b0b0b0;stroke-linecap:square;stroke-width:0.8;"/>
     </g>
     <g id="line2d_52">
      <g>
       <use style="stroke:#000000;stroke-width:0.8;" x="398.905" xlink:href="#m38d27d4732" y="85.602928"/>
      </g>
     </g>
     <g id="text_8">
      <!-- −1 -->
      <defs>
       <path d="M 10.59375 35.5 
L 73.1875 35.5 
L 73.1875 27.203125 
L 10.59375 27.203125 
z
" id="DejaVuSans-8722"/>
      </defs>
      <g transform="translate(377.162812 89.402147)scale(0.1 -0.1)">
       <use xlink:href="#DejaVuSans-8722"/>
       <use x="83.789062" xlink:href="#DejaVuSans-49"/>
      </g>
     </g>
    </g>
    <g id="ytick_6">
     <g id="line2d_53">
      <path clip-path="url(#p9810b81543)" d="M 398.905 44.541185 
L 709.2 44.541185 
" style="fill:none;stroke:#b0b0b0;stroke-linecap:square;stroke-width:0.8;"/>
     </g>
     <g id="line2d_54">
      <g>
       <use style="stroke:#000000;stroke-width:0.8;" x="398.905" xlink:href="#m38d27d4732" y="44.541185"/>
      </g>
     </g>
     <g id="text_9">
      <!-- 0 -->
      <g transform="translate(385.5425 48.340404)scale(0.1 -0.1)">
       <use xlink:href="#DejaVuSans-48"/>
      </g>
     </g>
    </g>
   </g>
   <g id="line2d_55">
    <path clip-path="url(#p9810b81543)" d="M 413.009318 44.541185 
L 422.177125 44.541185 
L 422.882341 44.737763 
L 423.587557 43.730282 
L 424.292773 38.579353 
L 425.703205 48.670647 
L 426.40842 43.387183 
L 427.113636 48.329948 
L 427.818852 42.970299 
L 428.524068 47.841006 
L 429.229284 42.413181 
L 429.9345 47.21954 
L 430.639716 41.730816 
L 432.050148 51.201779 
L 432.755364 45.63323 
L 433.46058 50.306158 
L 434.165795 44.69109 
L 434.871011 49.319899 
L 435.576227 43.662631 
L 436.986659 52.821406 
L 437.691875 47.10835 
L 438.397091 51.644064 
L 439.102307 45.898 
L 440.512739 54.884638 
L 441.217955 49.089694 
L 441.92317 53.547995 
L 442.628386 47.690098 
L 443.333602 52.072556 
L 444.038818 46.184321 
L 444.744034 50.560744 
L 445.44925 116.526982 
L 446.154466 110.624311 
L 446.859682 94.453054 
L 447.564898 98.808967 
L 448.270114 82.63626 
L 449.680545 70.820208 
L 450.385761 54.647495 
L 451.090977 59.007439 
L 452.501409 47.189367 
L 453.911841 55.907239 
L 454.617057 49.999478 
L 456.027489 58.712001 
L 456.732705 42.539576 
L 457.43792 36.634618 
L 458.143136 71.789577 
L 460.964 48.154904 
L 461.669216 62.780781 
L 463.079648 50.965882 
L 464.49008 59.677226 
L 465.195295 53.768927 
L 465.900511 58.127235 
L 466.605727 52.221258 
L 467.310943 56.581306 
L 468.016159 50.67606 
L 468.721375 55.033045 
L 469.426591 49.122641 
L 470.837023 57.834729 
L 471.542239 51.926548 
L 472.247455 56.284483 
L 472.95267 50.377532 
L 474.363102 59.095065 
L 475.068318 53.189055 
L 475.773534 57.549316 
L 476.47875 51.641878 
L 477.889182 60.353391 
L 478.594398 54.443685 
L 479.299614 58.800124 
L 480.00483 52.891709 
L 480.710045 57.249243 
L 481.415261 51.341759 
L 482.825693 60.057742 
L 483.530909 54.150271 
L 484.236125 58.508527 
L 484.941341 52.602025 
L 485.646557 56.96136 
L 486.351773 51.055642 
L 487.762205 59.774808 
L 488.46742 53.866606 
L 489.172636 58.222033 
L 489.877852 52.312186 
L 491.288284 61.024359 
L 491.9935 55.115465 
L 492.698716 59.472492 
L 493.403932 53.56426 
L 494.814364 62.278702 
L 495.51958 56.370265 
L 496.224795 60.727672 
L 496.930011 54.81979 
L 497.635227 59.177765 
L 498.340443 53.270511 
L 499.750875 61.987608 
L 500.456091 56.080965 
L 501.161307 60.440027 
L 501.866523 54.533792 
L 502.571739 58.893382 
L 503.276955 52.987694 
L 504.687386 61.708119 
L 505.392602 55.801238 
L 506.097818 60.15897 
L 506.803034 54.250113 
L 508.213466 62.961789 
L 508.918682 57.052365 
L 509.623898 61.408496 
L 510.329114 55.499503 
L 511.739545 64.212696 
L 512.444761 58.303998 
L 513.149977 62.660576 
L 513.855193 56.751667 
L 514.560409 61.108177 
L 515.265625 55.199227 
L 516.676057 63.912608 
L 517.381273 58.004057 
L 518.086489 62.361171 
L 518.791705 56.453018 
L 520.202136 65.168002 
L 520.907352 59.260243 
L 521.612568 63.61811 
L 522.317784 57.710739 
L 523.023 62.068804 
L 523.728216 56.161764 
L 525.138648 64.878727 
L 525.843864 58.972128 
L 526.54908 63.330965 
L 527.254295 57.424487 
L 528.664727 66.142765 
L 529.369943 60.236576 
L 530.075159 64.595903 
L 530.780375 58.689795 
L 531.485591 63.049297 
L 532.190807 57.143451 
L 533.601239 65.862874 
L 534.306455 59.957379 
L 535.01167 64.317321 
L 535.716886 58.411137 
L 537.127318 67.128872 
L 537.832534 61.22091 
L 538.53775 65.57708 
L 539.242966 59.667815 
L 539.948182 64.024009 
L 540.653398 58.114818 
L 542.06383 66.827315 
L 542.769045 60.918392 
L 543.474261 65.274905 
L 544.179477 59.365983 
L 545.589909 68.078844 
L 546.295125 62.169822 
L 547.000341 66.526187 
L 547.705557 60.616913 
L 548.410773 64.973074 
L 549.115989 59.063799 
L 550.52642 67.776352 
L 551.231636 61.867218 
L 551.936852 66.22352 
L 552.642068 60.314633 
L 554.0525 69.027732 
L 554.757716 63.118908 
L 555.462932 67.475702 
L 556.168148 61.567061 
L 556.873364 65.923855 
L 557.57858 60.015313 
L 558.989011 68.729382 
L 559.694227 62.820981 
L 560.399443 67.178128 
L 561.104659 61.269963 
L 562.515091 69.984504 
L 563.220307 64.076438 
L 563.925523 68.43394 
L 564.630739 62.526006 
L 565.335955 66.883508 
L 566.04117 60.975635 
L 567.451602 69.691094 
L 568.156818 63.783388 
L 568.862034 68.141118 
L 569.56725 62.233636 
L 570.977682 70.949546 
L 571.682898 65.042066 
L 572.388114 69.400154 
L 573.09333 63.492894 
L 573.798545 67.851069 
L 574.503761 61.943809 
L 575.914193 70.660395 
L 576.619409 64.75335 
L 577.324625 69.11174 
L 578.029841 63.204694 
L 579.440273 71.921784 
L 580.145489 66.014951 
L 580.850705 70.373554 
L 581.55592 64.466721 
L 582.261136 68.825466 
L 582.966352 62.91884 
L 584.376784 71.636459 
L 585.082 65.729833 
L 585.787216 70.088802 
L 586.492432 64.182378 
L 587.902864 72.900403 
L 588.60808 66.993979 
L 589.313295 71.353133 
L 590.018511 65.446898 
L 590.723727 69.806099 
L 591.428943 63.899865 
L 592.839375 72.618322 
L 593.544591 66.712186 
L 594.249807 71.071485 
L 594.955023 65.165349 
L 596.365455 73.883965 
L 597.07067 67.977901 
L 597.775886 72.337273 
L 598.481102 66.43121 
L 599.186318 70.790582 
L 599.891534 64.884519 
L 601.301966 73.603504 
L 602.007182 67.697579 
L 602.712398 72.05709 
L 603.417614 66.151165 
L 604.828045 74.868583 
L 605.533261 68.961192 
L 606.238477 73.319236 
L 606.943693 67.411845 
L 607.648909 71.769889 
L 608.354125 65.862119 
L 609.764557 74.575487 
L 610.469773 68.666735 
L 611.174989 73.023419 
L 611.880205 67.114667 
L 613.290636 75.828051 
L 613.995852 69.919311 
L 614.701068 74.276007 
L 615.406284 68.367268 
L 616.1115 72.723964 
L 616.816716 66.81521 
L 618.227148 75.528379 
L 618.932364 69.619528 
L 619.63758 73.976113 
L 620.342795 68.067261 
L 621.753227 76.780266 
L 622.458443 70.871204 
L 623.163659 75.227578 
L 623.868875 69.318516 
L 624.574091 73.67489 
L 625.279307 67.765828 
L 626.689739 76.478613 
L 627.394955 70.569582 
L 628.10017 74.925986 
L 628.805386 69.016955 
L 630.215818 77.729763 
L 630.921034 71.820791 
L 631.62625 76.177313 
L 632.331466 70.268399 
L 633.036682 74.624921 
L 633.741898 68.716007 
L 635.15233 77.429051 
L 635.857545 71.520202 
L 636.562761 75.87684 
L 637.267977 69.968043 
L 638.678409 78.681319 
L 639.383625 72.772521 
L 640.088841 77.129159 
L 640.794057 71.220406 
L 641.499273 75.577158 
L 642.204489 69.668473 
L 643.61492 78.381976 
L 644.320136 72.473292 
L 645.025352 76.830043 
L 645.730568 70.92136 
L 647.141 79.635082 
L 647.846216 73.726507 
L 648.551432 78.083368 
L 649.256648 72.174793 
L 649.961864 76.531654 
L 650.66708 70.623079 
L 652.077511 79.33695 
L 652.782727 73.428481 
L 653.487943 77.785449 
L 654.193159 71.87698 
L 655.603591 80.590915 
L 656.308807 74.682446 
L 657.014023 79.03947 
L 657.719239 73.131106 
L 658.424455 77.488177 
L 659.12967 71.579812 
L 660.540102 80.293954 
L 661.245318 74.38559 
L 661.950534 78.742661 
L 662.65575 72.834341 
L 664.066182 81.548685 
L 664.771398 75.640421 
L 665.476614 79.997593 
L 666.18183 74.089329 
L 666.887045 78.4465 
L 667.592261 72.538237 
L 669.002693 81.252688 
L 669.707909 75.344522 
L 670.413125 79.701793 
L 671.118341 73.793628 
L 672.528773 82.508169 
L 673.233989 76.600004 
L 673.939205 80.957275 
L 674.64442 75.049153 
L 675.349636 79.406519 
L 676.054852 73.49845 
L 677.465284 82.213182 
L 678.1705 76.305112 
L 678.875716 80.662478 
L 679.580932 74.754408 
L 680.991364 83.469191 
L 681.69658 77.561214 
L 682.401795 81.918672 
L 683.107011 76.010694 
L 683.812227 80.368152 
L 684.517443 74.460174 
L 685.927875 83.17509 
L 686.633091 77.267112 
L 687.338307 81.624602 
L 688.043523 75.716714 
L 689.453955 84.431809 
L 690.15917 78.523921 
L 690.864386 82.881469 
L 691.569602 76.973581 
L 692.274818 81.331129 
L 692.980034 75.423241 
L 694.390466 84.13841 
L 695.095682 78.230609 
L 695.095682 78.230609 
" style="fill:none;stroke:#1f77b4;stroke-linecap:square;stroke-width:1.5;"/>
   </g>
   <g id="patch_9">
    <path d="M 398.905 120.5216 
L 398.905 32.64 
" style="fill:none;stroke:#000000;stroke-linecap:square;stroke-linejoin:miter;stroke-width:0.8;"/>
   </g>
   <g id="patch_10">
    <path d="M 709.2 120.5216 
L 709.2 32.64 
" style="fill:none;stroke:#000000;stroke-linecap:square;stroke-linejoin:miter;stroke-width:0.8;"/>
   </g>
   <g id="patch_11">
    <path d="M 398.905 120.5216 
L 709.2 120.5216 
" style="fill:none;stroke:#000000;stroke-linecap:square;stroke-linejoin:miter;stroke-width:0.8;"/>
   </g>
   <g id="patch_12">
    <path d="M 398.905 32.64 
L 709.2 32.64 
" style="fill:none;stroke:#000000;stroke-linecap:square;stroke-linejoin:miter;stroke-width:0.8;"/>
   </g>
   <g id="text_10">
    <!-- Cons. Difference -->
    <defs>
     <path d="M 19.671875 64.796875 
L 19.671875 8.109375 
L 31.59375 8.109375 
Q 46.6875 8.109375 53.6875 14.9375 
Q 60.6875 21.78125 60.6875 36.53125 
Q 60.6875 51.171875 53.6875 57.984375 
Q 46.6875 64.796875 31.59375 64.796875 
z
M 9.8125 72.90625 
L 30.078125 72.90625 
Q 51.265625 72.90625 61.171875 64.09375 
Q 71.09375 55.28125 71.09375 36.53125 
Q 71.09375 17.671875 61.125 8.828125 
Q 51.171875 0 30.078125 0 
L 9.8125 0 
z
" id="DejaVuSans-68"/>
     <path d="M 37.109375 75.984375 
L 37.109375 68.5 
L 28.515625 68.5 
Q 23.6875 68.5 21.796875 66.546875 
Q 19.921875 64.59375 19.921875 59.515625 
L 19.921875 54.6875 
L 34.71875 54.6875 
L 34.71875 47.703125 
L 19.921875 47.703125 
L 19.921875 0 
L 10.890625 0 
L 10.890625 47.703125 
L 2.296875 47.703125 
L 2.296875 54.6875 
L 10.890625 54.6875 
L 10.890625 58.5 
Q 10.890625 67.625 15.140625 71.796875 
Q 19.390625 75.984375 28.609375 75.984375 
z
" id="DejaVuSans-102"/>
     <path d="M 56.203125 29.59375 
L 56.203125 25.203125 
L 14.890625 25.203125 
Q 15.484375 15.921875 20.484375 11.0625 
Q 25.484375 6.203125 34.421875 6.203125 
Q 39.59375 6.203125 44.453125 7.46875 
Q 49.3125 8.734375 54.109375 11.28125 
L 54.109375 2.78125 
Q 49.265625 0.734375 44.1875 -0.34375 
Q 39.109375 -1.421875 33.890625 -1.421875 
Q 20.796875 -1.421875 13.15625 6.1875 
Q 5.515625 13.8125 5.515625 26.8125 
Q 5.515625 40.234375 12.765625 48.109375 
Q 20.015625 56 32.328125 56 
Q 43.359375 56 49.78125 48.890625 
Q 56.203125 41.796875 56.203125 29.59375 
z
M 47.21875 32.234375 
Q 47.125 39.59375 43.09375 43.984375 
Q 39.0625 48.390625 32.421875 48.390625 
Q 24.90625 48.390625 20.390625 44.140625 
Q 15.875 39.890625 15.1875 32.171875 
z
" id="DejaVuSans-101"/>
     <path d="M 41.109375 46.296875 
Q 39.59375 47.171875 37.8125 47.578125 
Q 36.03125 48 33.890625 48 
Q 26.265625 48 22.1875 43.046875 
Q 18.109375 38.09375 18.109375 28.8125 
L 18.109375 0 
L 9.078125 0 
L 9.078125 54.6875 
L 18.109375 54.6875 
L 18.109375 46.1875 
Q 20.953125 51.171875 25.484375 53.578125 
Q 30.03125 56 36.53125 56 
Q 37.453125 56 38.578125 55.875 
Q 39.703125 55.765625 41.0625 55.515625 
z
" id="DejaVuSans-114"/>
    </defs>
    <g transform="translate(504.296562 26.64)scale(0.12 -0.12)">
     <use xlink:href="#DejaVuSans-67"/>
     <use x="69.824219" xlink:href="#DejaVuSans-111"/>
     <use x="131.005859" xlink:href="#DejaVuSans-110"/>
     <use x="194.384766" xlink:href="#DejaVuSans-115"/>
     <use x="246.484375" xlink:href="#DejaVuSans-46"/>
     <use x="278.271484" xlink:href="#DejaVuSans-32"/>
     <use x="310.058594" xlink:href="#DejaVuSans-68"/>
     <use x="387.060547" xlink:href="#DejaVuSans-105"/>
     <use x="414.84375" xlink:href="#DejaVuSans-102"/>
     <use x="450.048828" xlink:href="#DejaVuSans-102"/>
     <use x="485.253906" xlink:href="#DejaVuSans-101"/>
     <use x="546.777344" xlink:href="#DejaVuSans-114"/>
     <use x="587.859375" xlink:href="#DejaVuSans-101"/>
     <use x="649.382812" xlink:href="#DejaVuSans-110"/>
     <use x="712.761719" xlink:href="#DejaVuSans-99"/>
     <use x="767.742188" xlink:href="#DejaVuSans-101"/>
    </g>
   </g>
   <g id="legend_2">
    <g id="patch_13">
     <path d="M 609.009375 55.318125 
L 702.2 55.318125 
Q 704.2 55.318125 704.2 53.318125 
L 704.2 39.64 
Q 704.2 37.64 702.2 37.64 
L 609.009375 37.64 
Q 607.009375 37.64 607.009375 39.64 
L 607.009375 53.318125 
Q 607.009375 55.318125 609.009375 55.318125 
z
" style="fill:#ffffff;opacity:0.8;stroke:#cccccc;stroke-linejoin:miter;"/>
    </g>
    <g id="line2d_56">
     <path d="M 611.009375 45.738438 
L 631.009375 45.738438 
" style="fill:none;stroke:#1f77b4;stroke-linecap:square;stroke-width:1.5;"/>
    </g>
    <g id="line2d_57"/>
    <g id="text_11">
     <!-- CGM - HARK -->
     <defs>
      <path d="M 4.890625 31.390625 
L 31.203125 31.390625 
L 31.203125 23.390625 
L 4.890625 23.390625 
z
" id="DejaVuSans-45"/>
     </defs>
     <g transform="translate(639.009375 49.238438)scale(0.1 -0.1)">
      <use xlink:href="#DejaVuSans-67"/>
      <use x="69.824219" xlink:href="#DejaVuSans-71"/>
      <use x="147.314453" xlink:href="#DejaVuSans-77"/>
      <use x="233.59375" xlink:href="#DejaVuSans-32"/>
      <use x="265.380859" xlink:href="#DejaVuSans-45"/>
      <use x="301.464844" xlink:href="#DejaVuSans-32"/>
      <use x="333.251953" xlink:href="#DejaVuSans-72"/>
      <use x="408.447266" xlink:href="#DejaVuSans-65"/>
      <use x="476.855469" xlink:href="#DejaVuSans-82"/>
      <use x="546.337891" xlink:href="#DejaVuSans-75"/>
     </g>
    </g>
   </g>
  </g>
  <g id="axes_3">
   <g id="patch_14">
    <path d="M 40.12 252.344 
L 350.415 252.344 
L 350.415 164.4624 
L 40.12 164.4624 
z
" style="fill:#ffffff;"/>
   </g>
   <g id="matplotlib.axis_5">
    <g id="xtick_19">
     <g id="line2d_58">
      <path clip-path="url(#p06ca2c8cdd)" d="M 51.403455 252.344 
L 51.403455 164.4624 
" style="fill:none;stroke:#b0b0b0;stroke-linecap:square;stroke-width:0.8;"/>
     </g>
     <g id="line2d_59">
      <g>
       <use style="stroke:#000000;stroke-width:0.8;" x="51.403455" xlink:href="#m81fd0c679d" y="252.344"/>
      </g>
     </g>
     <g id="text_12">
      <!-- 0 -->
      <g transform="translate(48.222205 266.942437)scale(0.1 -0.1)">
       <use xlink:href="#DejaVuSans-48"/>
      </g>
     </g>
    </g>
    <g id="xtick_20">
     <g id="line2d_60">
      <path clip-path="url(#p06ca2c8cdd)" d="M 86.66425 252.344 
L 86.66425 164.4624 
" style="fill:none;stroke:#b0b0b0;stroke-linecap:square;stroke-width:0.8;"/>
     </g>
     <g id="line2d_61">
      <g>
       <use style="stroke:#000000;stroke-width:0.8;" x="86.66425" xlink:href="#m81fd0c679d" y="252.344"/>
      </g>
     </g>
     <g id="text_13">
      <!-- 50 -->
      <g transform="translate(80.30175 266.942437)scale(0.1 -0.1)">
       <use xlink:href="#DejaVuSans-53"/>
       <use x="63.623047" xlink:href="#DejaVuSans-48"/>
      </g>
     </g>
    </g>
    <g id="xtick_21">
     <g id="line2d_62">
      <path clip-path="url(#p06ca2c8cdd)" d="M 121.925045 252.344 
L 121.925045 164.4624 
" style="fill:none;stroke:#b0b0b0;stroke-linecap:square;stroke-width:0.8;"/>
     </g>
     <g id="line2d_63">
      <g>
       <use style="stroke:#000000;stroke-width:0.8;" x="121.925045" xlink:href="#m81fd0c679d" y="252.344"/>
      </g>
     </g>
     <g id="text_14">
      <!-- 100 -->
      <g transform="translate(112.381295 266.942437)scale(0.1 -0.1)">
       <use xlink:href="#DejaVuSans-49"/>
       <use x="63.623047" xlink:href="#DejaVuSans-48"/>
       <use x="127.246094" xlink:href="#DejaVuSans-48"/>
      </g>
     </g>
    </g>
    <g id="xtick_22">
     <g id="line2d_64">
      <path clip-path="url(#p06ca2c8cdd)" d="M 157.185841 252.344 
L 157.185841 164.4624 
" style="fill:none;stroke:#b0b0b0;stroke-linecap:square;stroke-width:0.8;"/>
     </g>
     <g id="line2d_65">
      <g>
       <use style="stroke:#000000;stroke-width:0.8;" x="157.185841" xlink:href="#m81fd0c679d" y="252.344"/>
      </g>
     </g>
     <g id="text_15">
      <!-- 150 -->
      <g transform="translate(147.642091 266.942437)scale(0.1 -0.1)">
       <use xlink:href="#DejaVuSans-49"/>
       <use x="63.623047" xlink:href="#DejaVuSans-53"/>
       <use x="127.246094" xlink:href="#DejaVuSans-48"/>
      </g>
     </g>
    </g>
    <g id="xtick_23">
     <g id="line2d_66">
      <path clip-path="url(#p06ca2c8cdd)" d="M 192.446636 252.344 
L 192.446636 164.4624 
" style="fill:none;stroke:#b0b0b0;stroke-linecap:square;stroke-width:0.8;"/>
     </g>
     <g id="line2d_67">
      <g>
       <use style="stroke:#000000;stroke-width:0.8;" x="192.446636" xlink:href="#m81fd0c679d" y="252.344"/>
      </g>
     </g>
     <g id="text_16">
      <!-- 200 -->
      <defs>
       <path d="M 19.1875 8.296875 
L 53.609375 8.296875 
L 53.609375 0 
L 7.328125 0 
L 7.328125 8.296875 
Q 12.9375 14.109375 22.625 23.890625 
Q 32.328125 33.6875 34.8125 36.53125 
Q 39.546875 41.84375 41.421875 45.53125 
Q 43.3125 49.21875 43.3125 52.78125 
Q 43.3125 58.59375 39.234375 62.25 
Q 35.15625 65.921875 28.609375 65.921875 
Q 23.96875 65.921875 18.8125 64.3125 
Q 13.671875 62.703125 7.8125 59.421875 
L 7.8125 69.390625 
Q 13.765625 71.78125 18.9375 73 
Q 24.125 74.21875 28.421875 74.21875 
Q 39.75 74.21875 46.484375 68.546875 
Q 53.21875 62.890625 53.21875 53.421875 
Q 53.21875 48.921875 51.53125 44.890625 
Q 49.859375 40.875 45.40625 35.40625 
Q 44.1875 33.984375 37.640625 27.21875 
Q 31.109375 20.453125 19.1875 8.296875 
z
" id="DejaVuSans-50"/>
      </defs>
      <g transform="translate(182.902886 266.942437)scale(0.1 -0.1)">
       <use xlink:href="#DejaVuSans-50"/>
       <use x="63.623047" xlink:href="#DejaVuSans-48"/>
       <use x="127.246094" xlink:href="#DejaVuSans-48"/>
      </g>
     </g>
    </g>
    <g id="xtick_24">
     <g id="line2d_68">
      <path clip-path="url(#p06ca2c8cdd)" d="M 227.707432 252.344 
L 227.707432 164.4624 
" style="fill:none;stroke:#b0b0b0;stroke-linecap:square;stroke-width:0.8;"/>
     </g>
     <g id="line2d_69">
      <g>
       <use style="stroke:#000000;stroke-width:0.8;" x="227.707432" xlink:href="#m81fd0c679d" y="252.344"/>
      </g>
     </g>
     <g id="text_17">
      <!-- 250 -->
      <g transform="translate(218.163682 266.942437)scale(0.1 -0.1)">
       <use xlink:href="#DejaVuSans-50"/>
       <use x="63.623047" xlink:href="#DejaVuSans-53"/>
       <use x="127.246094" xlink:href="#DejaVuSans-48"/>
      </g>
     </g>
    </g>
    <g id="xtick_25">
     <g id="line2d_70">
      <path clip-path="url(#p06ca2c8cdd)" d="M 262.968227 252.344 
L 262.968227 164.4624 
" style="fill:none;stroke:#b0b0b0;stroke-linecap:square;stroke-width:0.8;"/>
     </g>
     <g id="line2d_71">
      <g>
       <use style="stroke:#000000;stroke-width:0.8;" x="262.968227" xlink:href="#m81fd0c679d" y="252.344"/>
      </g>
     </g>
     <g id="text_18">
      <!-- 300 -->
      <defs>
       <path d="M 40.578125 39.3125 
Q 47.65625 37.796875 51.625 33 
Q 55.609375 28.21875 55.609375 21.1875 
Q 55.609375 10.40625 48.1875 4.484375 
Q 40.765625 -1.421875 27.09375 -1.421875 
Q 22.515625 -1.421875 17.65625 -0.515625 
Q 12.796875 0.390625 7.625 2.203125 
L 7.625 11.71875 
Q 11.71875 9.328125 16.59375 8.109375 
Q 21.484375 6.890625 26.8125 6.890625 
Q 36.078125 6.890625 40.9375 10.546875 
Q 45.796875 14.203125 45.796875 21.1875 
Q 45.796875 27.640625 41.28125 31.265625 
Q 36.765625 34.90625 28.71875 34.90625 
L 20.21875 34.90625 
L 20.21875 43.015625 
L 29.109375 43.015625 
Q 36.375 43.015625 40.234375 45.921875 
Q 44.09375 48.828125 44.09375 54.296875 
Q 44.09375 59.90625 40.109375 62.90625 
Q 36.140625 65.921875 28.71875 65.921875 
Q 24.65625 65.921875 20.015625 65.03125 
Q 15.375 64.15625 9.8125 62.3125 
L 9.8125 71.09375 
Q 15.4375 72.65625 20.34375 73.4375 
Q 25.25 74.21875 29.59375 74.21875 
Q 40.828125 74.21875 47.359375 69.109375 
Q 53.90625 64.015625 53.90625 55.328125 
Q 53.90625 49.265625 50.4375 45.09375 
Q 46.96875 40.921875 40.578125 39.3125 
z
" id="DejaVuSans-51"/>
      </defs>
      <g transform="translate(253.424477 266.942437)scale(0.1 -0.1)">
       <use xlink:href="#DejaVuSans-51"/>
       <use x="63.623047" xlink:href="#DejaVuSans-48"/>
       <use x="127.246094" xlink:href="#DejaVuSans-48"/>
      </g>
     </g>
    </g>
    <g id="xtick_26">
     <g id="line2d_72">
      <path clip-path="url(#p06ca2c8cdd)" d="M 298.229023 252.344 
L 298.229023 164.4624 
" style="fill:none;stroke:#b0b0b0;stroke-linecap:square;stroke-width:0.8;"/>
     </g>
     <g id="line2d_73">
      <g>
       <use style="stroke:#000000;stroke-width:0.8;" x="298.229023" xlink:href="#m81fd0c679d" y="252.344"/>
      </g>
     </g>
     <g id="text_19">
      <!-- 350 -->
      <g transform="translate(288.685273 266.942437)scale(0.1 -0.1)">
       <use xlink:href="#DejaVuSans-51"/>
       <use x="63.623047" xlink:href="#DejaVuSans-53"/>
       <use x="127.246094" xlink:href="#DejaVuSans-48"/>
      </g>
     </g>
    </g>
    <g id="xtick_27">
     <g id="line2d_74">
      <path clip-path="url(#p06ca2c8cdd)" d="M 333.489818 252.344 
L 333.489818 164.4624 
" style="fill:none;stroke:#b0b0b0;stroke-linecap:square;stroke-width:0.8;"/>
     </g>
     <g id="line2d_75">
      <g>
       <use style="stroke:#000000;stroke-width:0.8;" x="333.489818" xlink:href="#m81fd0c679d" y="252.344"/>
      </g>
     </g>
     <g id="text_20">
      <!-- 400 -->
      <defs>
       <path d="M 37.796875 64.3125 
L 12.890625 25.390625 
L 37.796875 25.390625 
z
M 35.203125 72.90625 
L 47.609375 72.90625 
L 47.609375 25.390625 
L 58.015625 25.390625 
L 58.015625 17.1875 
L 47.609375 17.1875 
L 47.609375 0 
L 37.796875 0 
L 37.796875 17.1875 
L 4.890625 17.1875 
L 4.890625 26.703125 
z
" id="DejaVuSans-52"/>
      </defs>
      <g transform="translate(323.946068 266.942437)scale(0.1 -0.1)">
       <use xlink:href="#DejaVuSans-52"/>
       <use x="63.623047" xlink:href="#DejaVuSans-48"/>
       <use x="127.246094" xlink:href="#DejaVuSans-48"/>
      </g>
     </g>
    </g>
   </g>
   <g id="matplotlib.axis_6">
    <g id="ytick_7">
     <g id="line2d_76">
      <path clip-path="url(#p06ca2c8cdd)" d="M 40.12 248.349382 
L 350.415 248.349382 
" style="fill:none;stroke:#b0b0b0;stroke-linecap:square;stroke-width:0.8;"/>
     </g>
     <g id="line2d_77">
      <g>
       <use style="stroke:#000000;stroke-width:0.8;" x="40.12" xlink:href="#m38d27d4732" y="248.349382"/>
      </g>
     </g>
     <g id="text_21">
      <!-- 0.0 -->
      <g transform="translate(17.216875 252.148601)scale(0.1 -0.1)">
       <use xlink:href="#DejaVuSans-48"/>
       <use x="63.623047" xlink:href="#DejaVuSans-46"/>
       <use x="95.410156" xlink:href="#DejaVuSans-48"/>
      </g>
     </g>
    </g>
    <g id="ytick_8">
     <g id="line2d_78">
      <path clip-path="url(#p06ca2c8cdd)" d="M 40.12 208.4032 
L 350.415 208.4032 
" style="fill:none;stroke:#b0b0b0;stroke-linecap:square;stroke-width:0.8;"/>
     </g>
     <g id="line2d_79">
      <g>
       <use style="stroke:#000000;stroke-width:0.8;" x="40.12" xlink:href="#m38d27d4732" y="208.4032"/>
      </g>
     </g>
     <g id="text_22">
      <!-- 0.5 -->
      <g transform="translate(17.216875 212.202419)scale(0.1 -0.1)">
       <use xlink:href="#DejaVuSans-48"/>
       <use x="63.623047" xlink:href="#DejaVuSans-46"/>
       <use x="95.410156" xlink:href="#DejaVuSans-53"/>
      </g>
     </g>
    </g>
    <g id="ytick_9">
     <g id="line2d_80">
      <path clip-path="url(#p06ca2c8cdd)" d="M 40.12 168.457018 
L 350.415 168.457018 
" style="fill:none;stroke:#b0b0b0;stroke-linecap:square;stroke-width:0.8;"/>
     </g>
     <g id="line2d_81">
      <g>
       <use style="stroke:#000000;stroke-width:0.8;" x="40.12" xlink:href="#m38d27d4732" y="168.457018"/>
      </g>
     </g>
     <g id="text_23">
      <!-- 1.0 -->
      <g transform="translate(17.216875 172.256237)scale(0.1 -0.1)">
       <use xlink:href="#DejaVuSans-49"/>
       <use x="63.623047" xlink:href="#DejaVuSans-46"/>
       <use x="95.410156" xlink:href="#DejaVuSans-48"/>
      </g>
     </g>
    </g>
   </g>
   <g id="line2d_82">
    <path clip-path="url(#p06ca2c8cdd)" d="M 54.224318 248.349382 
L 63.392125 248.349382 
L 64.097341 168.457018 
L 70.444284 168.457018 
L 71.1495 169.255942 
L 71.854716 174.049484 
L 73.265148 184.435491 
L 73.970364 186.832262 
L 74.67558 190.82688 
L 75.380795 192.424727 
L 76.086011 195.620422 
L 76.791227 197.218269 
L 78.201659 202.011811 
L 78.906875 202.810735 
L 80.317307 206.006429 
L 81.022523 206.805353 
L 81.727739 208.4032 
L 85.959034 213.196742 
L 86.66425 215.593513 
L 87.369466 216.392436 
L 88.074682 216.392436 
L 88.779898 217.19136 
L 90.19033 217.19136 
L 90.895545 217.990284 
L 91.600761 217.990284 
L 92.305977 218.789207 
L 93.011193 218.789207 
L 93.716409 219.588131 
L 94.421625 218.789207 
L 95.126841 222.783825 
L 95.832057 225.97952 
L 96.537273 215.593513 
L 97.947705 220.387055 
L 98.65292 225.180596 
L 99.358136 215.593513 
L 100.063352 221.185978 
L 100.768568 221.185978 
L 102.179 214.794589 
L 102.884216 227.577367 
L 104.294648 224.381673 
L 104.999864 223.582749 
L 105.70508 226.778444 
L 106.410295 226.778444 
L 107.115511 225.180596 
L 107.820727 224.381673 
L 108.525943 224.381673 
L 109.231159 225.180596 
L 113.462455 225.180596 
L 114.16767 225.97952 
L 118.398966 225.97952 
L 119.104182 226.778444 
L 123.335477 226.778444 
L 124.040693 227.577367 
L 130.387636 227.577367 
L 131.092852 228.376291 
L 138.145011 228.376291 
L 138.850227 229.175215 
L 148.72325 229.175215 
L 149.428466 229.974138 
L 163.532784 229.974138 
L 164.238 230.773062 
L 183.27883 230.773062 
L 183.984045 231.571985 
L 213.603114 231.571985 
L 214.30833 232.370909 
L 264.378659 232.370909 
L 265.083875 233.169833 
L 336.310682 233.169833 
L 336.310682 233.169833 
" style="fill:none;stroke:#1f77b4;stroke-linecap:square;stroke-width:1.5;"/>
   </g>
   <g id="line2d_83">
    <path clip-path="url(#p06ca2c8cdd)" d="M 54.224318 168.457018 
L 83.13817 168.457018 
L 83.843386 169.727685 
L 85.253818 173.043407 
L 87.369466 177.3059 
L 89.485114 180.924148 
L 91.600761 183.982107 
L 93.716409 186.601647 
L 95.832057 188.87563 
L 98.65292 191.468484 
L 101.473784 193.663957 
L 104.294648 195.558245 
L 107.115511 197.194785 
L 110.641591 198.970001 
L 114.16767 200.487335 
L 118.398966 202.057545 
L 123.335477 203.593365 
L 128.977205 205.076474 
L 134.618932 206.304697 
L 141.671091 207.604062 
L 149.428466 208.781495 
L 158.596273 209.915069 
L 169.174511 210.989477 
L 180.457966 211.918549 
L 194.562284 212.840182 
L 210.78225 213.690782 
L 231.938727 214.55889 
L 254.505636 215.267429 
L 286.945568 216.025511 
L 328.553307 216.731124 
L 336.310682 216.838966 
L 336.310682 216.838966 
" style="fill:none;stroke:#ff7f0e;stroke-linecap:square;stroke-width:1.5;"/>
   </g>
   <g id="patch_15">
    <path d="M 40.12 252.344 
L 40.12 164.4624 
" style="fill:none;stroke:#000000;stroke-linecap:square;stroke-linejoin:miter;stroke-width:0.8;"/>
   </g>
   <g id="patch_16">
    <path d="M 350.415 252.344 
L 350.415 164.4624 
" style="fill:none;stroke:#000000;stroke-linecap:square;stroke-linejoin:miter;stroke-width:0.8;"/>
   </g>
   <g id="patch_17">
    <path d="M 40.12 252.344 
L 350.415 252.344 
" style="fill:none;stroke:#000000;stroke-linecap:square;stroke-linejoin:miter;stroke-width:0.8;"/>
   </g>
   <g id="patch_18">
    <path d="M 40.12 164.4624 
L 350.415 164.4624 
" style="fill:none;stroke:#000000;stroke-linecap:square;stroke-linejoin:miter;stroke-width:0.8;"/>
   </g>
   <g id="text_24">
    <!-- Risky Sh. Functions -->
    <defs>
     <path d="M 9.078125 75.984375 
L 18.109375 75.984375 
L 18.109375 31.109375 
L 44.921875 54.6875 
L 56.390625 54.6875 
L 27.390625 29.109375 
L 57.625 0 
L 45.90625 0 
L 18.109375 26.703125 
L 18.109375 0 
L 9.078125 0 
z
" id="DejaVuSans-107"/>
     <path d="M 32.171875 -5.078125 
Q 28.375 -14.84375 24.75 -17.8125 
Q 21.140625 -20.796875 15.09375 -20.796875 
L 7.90625 -20.796875 
L 7.90625 -13.28125 
L 13.1875 -13.28125 
Q 16.890625 -13.28125 18.9375 -11.515625 
Q 21 -9.765625 23.484375 -3.21875 
L 25.09375 0.875 
L 2.984375 54.6875 
L 12.5 54.6875 
L 29.59375 11.921875 
L 46.6875 54.6875 
L 56.203125 54.6875 
z
" id="DejaVuSans-121"/>
     <path d="M 53.515625 70.515625 
L 53.515625 60.890625 
Q 47.90625 63.578125 42.921875 64.890625 
Q 37.9375 66.21875 33.296875 66.21875 
Q 25.25 66.21875 20.875 63.09375 
Q 16.5 59.96875 16.5 54.203125 
Q 16.5 49.359375 19.40625 46.890625 
Q 22.3125 44.4375 30.421875 42.921875 
L 36.375 41.703125 
Q 47.40625 39.59375 52.65625 34.296875 
Q 57.90625 29 57.90625 20.125 
Q 57.90625 9.515625 50.796875 4.046875 
Q 43.703125 -1.421875 29.984375 -1.421875 
Q 24.8125 -1.421875 18.96875 -0.25 
Q 13.140625 0.921875 6.890625 3.21875 
L 6.890625 13.375 
Q 12.890625 10.015625 18.65625 8.296875 
Q 24.421875 6.59375 29.984375 6.59375 
Q 38.421875 6.59375 43.015625 9.90625 
Q 47.609375 13.234375 47.609375 19.390625 
Q 47.609375 24.75 44.3125 27.78125 
Q 41.015625 30.8125 33.5 32.328125 
L 27.484375 33.5 
Q 16.453125 35.6875 11.515625 40.375 
Q 6.59375 45.0625 6.59375 53.421875 
Q 6.59375 63.09375 13.40625 68.65625 
Q 20.21875 74.21875 32.171875 74.21875 
Q 37.3125 74.21875 42.625 73.28125 
Q 47.953125 72.359375 53.515625 70.515625 
z
" id="DejaVuSans-83"/>
     <path d="M 54.890625 33.015625 
L 54.890625 0 
L 45.90625 0 
L 45.90625 32.71875 
Q 45.90625 40.484375 42.875 44.328125 
Q 39.84375 48.1875 33.796875 48.1875 
Q 26.515625 48.1875 22.3125 43.546875 
Q 18.109375 38.921875 18.109375 30.90625 
L 18.109375 0 
L 9.078125 0 
L 9.078125 75.984375 
L 18.109375 75.984375 
L 18.109375 46.1875 
Q 21.34375 51.125 25.703125 53.5625 
Q 30.078125 56 35.796875 56 
Q 45.21875 56 50.046875 50.171875 
Q 54.890625 44.34375 54.890625 33.015625 
z
" id="DejaVuSans-104"/>
    </defs>
    <g transform="translate(136.982188 158.4624)scale(0.12 -0.12)">
     <use xlink:href="#DejaVuSans-82"/>
     <use x="69.482422" xlink:href="#DejaVuSans-105"/>
     <use x="97.265625" xlink:href="#DejaVuSans-115"/>
     <use x="149.365234" xlink:href="#DejaVuSans-107"/>
     <use x="207.228516" xlink:href="#DejaVuSans-121"/>
     <use x="266.408203" xlink:href="#DejaVuSans-32"/>
     <use x="298.195312" xlink:href="#DejaVuSans-83"/>
     <use x="361.671875" xlink:href="#DejaVuSans-104"/>
     <use x="425.050781" xlink:href="#DejaVuSans-46"/>
     <use x="456.837891" xlink:href="#DejaVuSans-32"/>
     <use x="488.625" xlink:href="#DejaVuSans-70"/>
     <use x="546.066406" xlink:href="#DejaVuSans-117"/>
     <use x="609.445312" xlink:href="#DejaVuSans-110"/>
     <use x="672.824219" xlink:href="#DejaVuSans-99"/>
     <use x="727.804688" xlink:href="#DejaVuSans-116"/>
     <use x="767.013672" xlink:href="#DejaVuSans-105"/>
     <use x="794.796875" xlink:href="#DejaVuSans-111"/>
     <use x="855.978516" xlink:href="#DejaVuSans-110"/>
     <use x="919.357422" xlink:href="#DejaVuSans-115"/>
    </g>
   </g>
   <g id="legend_3">
    <g id="patch_19">
     <path d="M 283.547813 201.81865 
L 343.415 201.81865 
Q 345.415 201.81865 345.415 199.81865 
L 345.415 171.4624 
Q 345.415 169.4624 343.415 169.4624 
L 283.547813 169.4624 
Q 281.547813 169.4624 281.547813 171.4624 
L 281.547813 199.81865 
Q 281.547813 201.81865 283.547813 201.81865 
z
" style="fill:#ffffff;opacity:0.8;stroke:#cccccc;stroke-linejoin:miter;"/>
    </g>
    <g id="line2d_84">
     <path d="M 285.547813 177.560837 
L 305.547813 177.560837 
" style="fill:none;stroke:#1f77b4;stroke-linecap:square;stroke-width:1.5;"/>
    </g>
    <g id="line2d_85"/>
    <g id="text_25">
     <!-- CGM -->
     <g transform="translate(313.547813 181.060837)scale(0.1 -0.1)">
      <use xlink:href="#DejaVuSans-67"/>
      <use x="69.824219" xlink:href="#DejaVuSans-71"/>
      <use x="147.314453" xlink:href="#DejaVuSans-77"/>
     </g>
    </g>
    <g id="line2d_86">
     <path d="M 285.547813 192.238962 
L 305.547813 192.238962 
" style="fill:none;stroke:#ff7f0e;stroke-linecap:square;stroke-width:1.5;"/>
    </g>
    <g id="line2d_87"/>
    <g id="text_26">
     <!-- HARK -->
     <g transform="translate(313.547813 195.738962)scale(0.1 -0.1)">
      <use xlink:href="#DejaVuSans-72"/>
      <use x="75.195312" xlink:href="#DejaVuSans-65"/>
      <use x="143.603516" xlink:href="#DejaVuSans-82"/>
      <use x="213.085938" xlink:href="#DejaVuSans-75"/>
     </g>
    </g>
   </g>
  </g>
  <g id="axes_4">
   <g id="patch_20">
    <path d="M 398.905 252.344 
L 709.2 252.344 
L 709.2 164.4624 
L 398.905 164.4624 
z
" style="fill:#ffffff;"/>
   </g>
   <g id="matplotlib.axis_7">
    <g id="xtick_28">
     <g id="line2d_88">
      <path clip-path="url(#pb27c6469bd)" d="M 410.188455 252.344 
L 410.188455 164.4624 
" style="fill:none;stroke:#b0b0b0;stroke-linecap:square;stroke-width:0.8;"/>
     </g>
     <g id="line2d_89">
      <g>
       <use style="stroke:#000000;stroke-width:0.8;" x="410.188455" xlink:href="#m81fd0c679d" y="252.344"/>
      </g>
     </g>
     <g id="text_27">
      <!-- 0 -->
      <g transform="translate(407.007205 266.942437)scale(0.1 -0.1)">
       <use xlink:href="#DejaVuSans-48"/>
      </g>
     </g>
    </g>
    <g id="xtick_29">
     <g id="line2d_90">
      <path clip-path="url(#pb27c6469bd)" d="M 445.44925 252.344 
L 445.44925 164.4624 
" style="fill:none;stroke:#b0b0b0;stroke-linecap:square;stroke-width:0.8;"/>
     </g>
     <g id="line2d_91">
      <g>
       <use style="stroke:#000000;stroke-width:0.8;" x="445.44925" xlink:href="#m81fd0c679d" y="252.344"/>
      </g>
     </g>
     <g id="text_28">
      <!-- 50 -->
      <g transform="translate(439.08675 266.942437)scale(0.1 -0.1)">
       <use xlink:href="#DejaVuSans-53"/>
       <use x="63.623047" xlink:href="#DejaVuSans-48"/>
      </g>
     </g>
    </g>
    <g id="xtick_30">
     <g id="line2d_92">
      <path clip-path="url(#pb27c6469bd)" d="M 480.710045 252.344 
L 480.710045 164.4624 
" style="fill:none;stroke:#b0b0b0;stroke-linecap:square;stroke-width:0.8;"/>
     </g>
     <g id="line2d_93">
      <g>
       <use style="stroke:#000000;stroke-width:0.8;" x="480.710045" xlink:href="#m81fd0c679d" y="252.344"/>
      </g>
     </g>
     <g id="text_29">
      <!-- 100 -->
      <g transform="translate(471.166295 266.942437)scale(0.1 -0.1)">
       <use xlink:href="#DejaVuSans-49"/>
       <use x="63.623047" xlink:href="#DejaVuSans-48"/>
       <use x="127.246094" xlink:href="#DejaVuSans-48"/>
      </g>
     </g>
    </g>
    <g id="xtick_31">
     <g id="line2d_94">
      <path clip-path="url(#pb27c6469bd)" d="M 515.970841 252.344 
L 515.970841 164.4624 
" style="fill:none;stroke:#b0b0b0;stroke-linecap:square;stroke-width:0.8;"/>
     </g>
     <g id="line2d_95">
      <g>
       <use style="stroke:#000000;stroke-width:0.8;" x="515.970841" xlink:href="#m81fd0c679d" y="252.344"/>
      </g>
     </g>
     <g id="text_30">
      <!-- 150 -->
      <g transform="translate(506.427091 266.942437)scale(0.1 -0.1)">
       <use xlink:href="#DejaVuSans-49"/>
       <use x="63.623047" xlink:href="#DejaVuSans-53"/>
       <use x="127.246094" xlink:href="#DejaVuSans-48"/>
      </g>
     </g>
    </g>
    <g id="xtick_32">
     <g id="line2d_96">
      <path clip-path="url(#pb27c6469bd)" d="M 551.231636 252.344 
L 551.231636 164.4624 
" style="fill:none;stroke:#b0b0b0;stroke-linecap:square;stroke-width:0.8;"/>
     </g>
     <g id="line2d_97">
      <g>
       <use style="stroke:#000000;stroke-width:0.8;" x="551.231636" xlink:href="#m81fd0c679d" y="252.344"/>
      </g>
     </g>
     <g id="text_31">
      <!-- 200 -->
      <g transform="translate(541.687886 266.942437)scale(0.1 -0.1)">
       <use xlink:href="#DejaVuSans-50"/>
       <use x="63.623047" xlink:href="#DejaVuSans-48"/>
       <use x="127.246094" xlink:href="#DejaVuSans-48"/>
      </g>
     </g>
    </g>
    <g id="xtick_33">
     <g id="line2d_98">
      <path clip-path="url(#pb27c6469bd)" d="M 586.492432 252.344 
L 586.492432 164.4624 
" style="fill:none;stroke:#b0b0b0;stroke-linecap:square;stroke-width:0.8;"/>
     </g>
     <g id="line2d_99">
      <g>
       <use style="stroke:#000000;stroke-width:0.8;" x="586.492432" xlink:href="#m81fd0c679d" y="252.344"/>
      </g>
     </g>
     <g id="text_32">
      <!-- 250 -->
      <g transform="translate(576.948682 266.942437)scale(0.1 -0.1)">
       <use xlink:href="#DejaVuSans-50"/>
       <use x="63.623047" xlink:href="#DejaVuSans-53"/>
       <use x="127.246094" xlink:href="#DejaVuSans-48"/>
      </g>
     </g>
    </g>
    <g id="xtick_34">
     <g id="line2d_100">
      <path clip-path="url(#pb27c6469bd)" d="M 621.753227 252.344 
L 621.753227 164.4624 
" style="fill:none;stroke:#b0b0b0;stroke-linecap:square;stroke-width:0.8;"/>
     </g>
     <g id="line2d_101">
      <g>
       <use style="stroke:#000000;stroke-width:0.8;" x="621.753227" xlink:href="#m81fd0c679d" y="252.344"/>
      </g>
     </g>
     <g id="text_33">
      <!-- 300 -->
      <g transform="translate(612.209477 266.942437)scale(0.1 -0.1)">
       <use xlink:href="#DejaVuSans-51"/>
       <use x="63.623047" xlink:href="#DejaVuSans-48"/>
       <use x="127.246094" xlink:href="#DejaVuSans-48"/>
      </g>
     </g>
    </g>
    <g id="xtick_35">
     <g id="line2d_102">
      <path clip-path="url(#pb27c6469bd)" d="M 657.014023 252.344 
L 657.014023 164.4624 
" style="fill:none;stroke:#b0b0b0;stroke-linecap:square;stroke-width:0.8;"/>
     </g>
     <g id="line2d_103">
      <g>
       <use style="stroke:#000000;stroke-width:0.8;" x="657.014023" xlink:href="#m81fd0c679d" y="252.344"/>
      </g>
     </g>
     <g id="text_34">
      <!-- 350 -->
      <g transform="translate(647.470273 266.942437)scale(0.1 -0.1)">
       <use xlink:href="#DejaVuSans-51"/>
       <use x="63.623047" xlink:href="#DejaVuSans-53"/>
       <use x="127.246094" xlink:href="#DejaVuSans-48"/>
      </g>
     </g>
    </g>
    <g id="xtick_36">
     <g id="line2d_104">
      <path clip-path="url(#pb27c6469bd)" d="M 692.274818 252.344 
L 692.274818 164.4624 
" style="fill:none;stroke:#b0b0b0;stroke-linecap:square;stroke-width:0.8;"/>
     </g>
     <g id="line2d_105">
      <g>
       <use style="stroke:#000000;stroke-width:0.8;" x="692.274818" xlink:href="#m81fd0c679d" y="252.344"/>
      </g>
     </g>
     <g id="text_35">
      <!-- 400 -->
      <g transform="translate(682.731068 266.942437)scale(0.1 -0.1)">
       <use xlink:href="#DejaVuSans-52"/>
       <use x="63.623047" xlink:href="#DejaVuSans-48"/>
       <use x="127.246094" xlink:href="#DejaVuSans-48"/>
      </g>
     </g>
    </g>
   </g>
   <g id="matplotlib.axis_8">
    <g id="ytick_10">
     <g id="line2d_106">
      <path clip-path="url(#pb27c6469bd)" d="M 398.905 248.349382 
L 709.2 248.349382 
" style="fill:none;stroke:#b0b0b0;stroke-linecap:square;stroke-width:0.8;"/>
     </g>
     <g id="line2d_107">
      <g>
       <use style="stroke:#000000;stroke-width:0.8;" x="398.905" xlink:href="#m38d27d4732" y="248.349382"/>
      </g>
     </g>
     <g id="text_36">
      <!-- −1.0 -->
      <g transform="translate(367.622187 252.148601)scale(0.1 -0.1)">
       <use xlink:href="#DejaVuSans-8722"/>
       <use x="83.789062" xlink:href="#DejaVuSans-49"/>
       <use x="147.412109" xlink:href="#DejaVuSans-46"/>
       <use x="179.199219" xlink:href="#DejaVuSans-48"/>
      </g>
     </g>
    </g>
    <g id="ytick_11">
     <g id="line2d_108">
      <path clip-path="url(#pb27c6469bd)" d="M 398.905 208.4032 
L 709.2 208.4032 
" style="fill:none;stroke:#b0b0b0;stroke-linecap:square;stroke-width:0.8;"/>
     </g>
     <g id="line2d_109">
      <g>
       <use style="stroke:#000000;stroke-width:0.8;" x="398.905" xlink:href="#m38d27d4732" y="208.4032"/>
      </g>
     </g>
     <g id="text_37">
      <!-- −0.5 -->
      <g transform="translate(367.622187 212.202419)scale(0.1 -0.1)">
       <use xlink:href="#DejaVuSans-8722"/>
       <use x="83.789062" xlink:href="#DejaVuSans-48"/>
       <use x="147.412109" xlink:href="#DejaVuSans-46"/>
       <use x="179.199219" xlink:href="#DejaVuSans-53"/>
      </g>
     </g>
    </g>
    <g id="ytick_12">
     <g id="line2d_110">
      <path clip-path="url(#pb27c6469bd)" d="M 398.905 168.457018 
L 709.2 168.457018 
" style="fill:none;stroke:#b0b0b0;stroke-linecap:square;stroke-width:0.8;"/>
     </g>
     <g id="line2d_111">
      <g>
       <use style="stroke:#000000;stroke-width:0.8;" x="398.905" xlink:href="#m38d27d4732" y="168.457018"/>
      </g>
     </g>
     <g id="text_38">
      <!-- 0.0 -->
      <g transform="translate(376.001875 172.256237)scale(0.1 -0.1)">
       <use xlink:href="#DejaVuSans-48"/>
       <use x="63.623047" xlink:href="#DejaVuSans-46"/>
       <use x="95.410156" xlink:href="#DejaVuSans-48"/>
      </g>
     </g>
    </g>
   </g>
   <g id="line2d_112">
    <path clip-path="url(#pb27c6469bd)" d="M 413.009318 248.349382 
L 422.177125 248.349382 
L 422.882341 168.457018 
L 429.229284 168.457018 
L 429.9345 169.255942 
L 430.639716 174.049484 
L 432.050148 184.435491 
L 432.755364 186.832262 
L 433.46058 190.82688 
L 434.165795 192.424727 
L 434.871011 195.620422 
L 435.576227 197.218269 
L 436.986659 202.011811 
L 437.691875 202.810735 
L 439.102307 206.006429 
L 439.807523 206.805353 
L 440.512739 208.4032 
L 441.92317 210.001047 
L 442.628386 209.529304 
L 444.038818 207.811429 
L 444.744034 207.106988 
L 445.44925 208.091129 
L 446.154466 207.543555 
L 446.859682 206.262753 
L 447.564898 205.862321 
L 448.97533 203.646319 
L 449.680545 203.430273 
L 450.385761 202.465195 
L 451.090977 202.342644 
L 451.796193 201.47323 
L 452.501409 201.443502 
L 453.206625 199.852345 
L 453.911841 203.086662 
L 454.617057 205.560908 
L 455.322273 194.489153 
L 456.732705 197.986803 
L 457.43792 202.16913 
L 458.143136 191.998359 
L 458.848352 197.034822 
L 459.553568 196.497598 
L 460.964 189.088523 
L 461.669216 201.388472 
L 463.079648 197.280446 
L 463.784864 196.051884 
L 464.49008 198.832331 
L 465.195295 198.430337 
L 465.900511 196.442829 
L 466.605727 195.265946 
L 467.310943 194.898656 
L 468.016159 195.340555 
L 471.542239 193.731783 
L 472.247455 193.437058 
L 472.95267 193.949204 
L 477.183966 192.378993 
L 477.889182 192.942339 
L 482.120477 191.642097 
L 482.825693 192.241245 
L 487.762205 190.957912 
L 489.172636 190.631117 
L 489.877852 191.272124 
L 496.224795 189.980824 
L 496.930011 189.849356 
L 497.635227 190.519987 
L 504.687386 189.353448 
L 507.50825 188.947494 
L 508.213466 189.649662 
L 517.381273 188.516088 
L 522.317784 187.98747 
L 523.023 188.714255 
L 535.01167 187.634641 
L 542.06383 187.110455 
L 542.769045 187.861309 
L 558.283795 186.909046 
L 572.388114 186.208468 
L 573.09333 186.976064 
L 594.249807 186.144812 
L 617.521932 185.448249 
L 623.163659 185.30559 
L 623.868875 186.087152 
L 656.308807 185.39867 
L 695.095682 184.787885 
L 695.095682 184.787885 
" style="fill:none;stroke:#1f77b4;stroke-linecap:square;stroke-width:1.5;"/>
   </g>
   <g id="patch_21">
    <path d="M 398.905 252.344 
L 398.905 164.4624 
" style="fill:none;stroke:#000000;stroke-linecap:square;stroke-linejoin:miter;stroke-width:0.8;"/>
   </g>
   <g id="patch_22">
    <path d="M 709.2 252.344 
L 709.2 164.4624 
" style="fill:none;stroke:#000000;stroke-linecap:square;stroke-linejoin:miter;stroke-width:0.8;"/>
   </g>
   <g id="patch_23">
    <path d="M 398.905 252.344 
L 709.2 252.344 
" style="fill:none;stroke:#000000;stroke-linecap:square;stroke-linejoin:miter;stroke-width:0.8;"/>
   </g>
   <g id="patch_24">
    <path d="M 398.905 164.4624 
L 709.2 164.4624 
" style="fill:none;stroke:#000000;stroke-linecap:square;stroke-linejoin:miter;stroke-width:0.8;"/>
   </g>
   <g id="text_39">
    <!-- Risky Sh. Difference -->
    <g transform="translate(493.582812 158.4624)scale(0.12 -0.12)">
     <use xlink:href="#DejaVuSans-82"/>
     <use x="69.482422" xlink:href="#DejaVuSans-105"/>
     <use x="97.265625" xlink:href="#DejaVuSans-115"/>
     <use x="149.365234" xlink:href="#DejaVuSans-107"/>
     <use x="207.228516" xlink:href="#DejaVuSans-121"/>
     <use x="266.408203" xlink:href="#DejaVuSans-32"/>
     <use x="298.195312" xlink:href="#DejaVuSans-83"/>
     <use x="361.671875" xlink:href="#DejaVuSans-104"/>
     <use x="425.050781" xlink:href="#DejaVuSans-46"/>
     <use x="456.837891" xlink:href="#DejaVuSans-32"/>
     <use x="488.625" xlink:href="#DejaVuSans-68"/>
     <use x="565.626953" xlink:href="#DejaVuSans-105"/>
     <use x="593.410156" xlink:href="#DejaVuSans-102"/>
     <use x="628.615234" xlink:href="#DejaVuSans-102"/>
     <use x="663.820312" xlink:href="#DejaVuSans-101"/>
     <use x="725.34375" xlink:href="#DejaVuSans-114"/>
     <use x="766.425781" xlink:href="#DejaVuSans-101"/>
     <use x="827.949219" xlink:href="#DejaVuSans-110"/>
     <use x="891.328125" xlink:href="#DejaVuSans-99"/>
     <use x="946.308594" xlink:href="#DejaVuSans-101"/>
    </g>
   </g>
   <g id="legend_4">
    <g id="patch_25">
     <path d="M 609.009375 247.344 
L 702.2 247.344 
Q 704.2 247.344 704.2 245.344 
L 704.2 231.665875 
Q 704.2 229.665875 702.2 229.665875 
L 609.009375 229.665875 
Q 607.009375 229.665875 607.009375 231.665875 
L 607.009375 245.344 
Q 607.009375 247.344 609.009375 247.344 
z
" style="fill:#ffffff;opacity:0.8;stroke:#cccccc;stroke-linejoin:miter;"/>
    </g>
    <g id="line2d_113">
     <path d="M 611.009375 237.764312 
L 631.009375 237.764312 
" style="fill:none;stroke:#1f77b4;stroke-linecap:square;stroke-width:1.5;"/>
    </g>
    <g id="line2d_114"/>
    <g id="text_40">
     <!-- CGM - HARK -->
     <g transform="translate(639.009375 241.264312)scale(0.1 -0.1)">
      <use xlink:href="#DejaVuSans-67"/>
      <use x="69.824219" xlink:href="#DejaVuSans-71"/>
      <use x="147.314453" xlink:href="#DejaVuSans-77"/>
      <use x="233.59375" xlink:href="#DejaVuSans-32"/>
      <use x="265.380859" xlink:href="#DejaVuSans-45"/>
      <use x="301.464844" xlink:href="#DejaVuSans-32"/>
      <use x="333.251953" xlink:href="#DejaVuSans-72"/>
      <use x="408.447266" xlink:href="#DejaVuSans-65"/>
      <use x="476.855469" xlink:href="#DejaVuSans-82"/>
      <use x="546.337891" xlink:href="#DejaVuSans-75"/>
     </g>
    </g>
   </g>
  </g>
  <g id="text_41">
   <!-- Year 98 -->
   <defs>
    <path d="M -0.203125 72.90625 
L 10.40625 72.90625 
L 30.609375 42.921875 
L 50.6875 72.90625 
L 61.28125 72.90625 
L 35.5 34.71875 
L 35.5 0 
L 25.59375 0 
L 25.59375 34.71875 
z
" id="DejaVuSans-89"/>
    <path d="M 34.28125 27.484375 
Q 23.390625 27.484375 19.1875 25 
Q 14.984375 22.515625 14.984375 16.5 
Q 14.984375 11.71875 18.140625 8.90625 
Q 21.296875 6.109375 26.703125 6.109375 
Q 34.1875 6.109375 38.703125 11.40625 
Q 43.21875 16.703125 43.21875 25.484375 
L 43.21875 27.484375 
z
M 52.203125 31.203125 
L 52.203125 0 
L 43.21875 0 
L 43.21875 8.296875 
Q 40.140625 3.328125 35.546875 0.953125 
Q 30.953125 -1.421875 24.3125 -1.421875 
Q 15.921875 -1.421875 10.953125 3.296875 
Q 6 8.015625 6 15.921875 
Q 6 25.140625 12.171875 29.828125 
Q 18.359375 34.515625 30.609375 34.515625 
L 43.21875 34.515625 
L 43.21875 35.40625 
Q 43.21875 41.609375 39.140625 45 
Q 35.0625 48.390625 27.6875 48.390625 
Q 23 48.390625 18.546875 47.265625 
Q 14.109375 46.140625 10.015625 43.890625 
L 10.015625 52.203125 
Q 14.9375 54.109375 19.578125 55.046875 
Q 24.21875 56 28.609375 56 
Q 40.484375 56 46.34375 49.84375 
Q 52.203125 43.703125 52.203125 31.203125 
z
" id="DejaVuSans-97"/>
    <path d="M 10.984375 1.515625 
L 10.984375 10.5 
Q 14.703125 8.734375 18.5 7.8125 
Q 22.3125 6.890625 25.984375 6.890625 
Q 35.75 6.890625 40.890625 13.453125 
Q 46.046875 20.015625 46.78125 33.40625 
Q 43.953125 29.203125 39.59375 26.953125 
Q 35.25 24.703125 29.984375 24.703125 
Q 19.046875 24.703125 12.671875 31.3125 
Q 6.296875 37.9375 6.296875 49.421875 
Q 6.296875 60.640625 12.9375 67.421875 
Q 19.578125 74.21875 30.609375 74.21875 
Q 43.265625 74.21875 49.921875 64.515625 
Q 56.59375 54.828125 56.59375 36.375 
Q 56.59375 19.140625 48.40625 8.859375 
Q 40.234375 -1.421875 26.421875 -1.421875 
Q 22.703125 -1.421875 18.890625 -0.6875 
Q 15.09375 0.046875 10.984375 1.515625 
z
M 30.609375 32.421875 
Q 37.25 32.421875 41.125 36.953125 
Q 45.015625 41.5 45.015625 49.421875 
Q 45.015625 57.28125 41.125 61.84375 
Q 37.25 66.40625 30.609375 66.40625 
Q 23.96875 66.40625 20.09375 61.84375 
Q 16.21875 57.28125 16.21875 49.421875 
Q 16.21875 41.5 20.09375 36.953125 
Q 23.96875 32.421875 30.609375 32.421875 
z
" id="DejaVuSans-57"/>
    <path d="M 31.78125 34.625 
Q 24.75 34.625 20.71875 30.859375 
Q 16.703125 27.09375 16.703125 20.515625 
Q 16.703125 13.921875 20.71875 10.15625 
Q 24.75 6.390625 31.78125 6.390625 
Q 38.8125 6.390625 42.859375 10.171875 
Q 46.921875 13.96875 46.921875 20.515625 
Q 46.921875 27.09375 42.890625 30.859375 
Q 38.875 34.625 31.78125 34.625 
z
M 21.921875 38.8125 
Q 15.578125 40.375 12.03125 44.71875 
Q 8.5 49.078125 8.5 55.328125 
Q 8.5 64.0625 14.71875 69.140625 
Q 20.953125 74.21875 31.78125 74.21875 
Q 42.671875 74.21875 48.875 69.140625 
Q 55.078125 64.0625 55.078125 55.328125 
Q 55.078125 49.078125 51.53125 44.71875 
Q 48 40.375 41.703125 38.8125 
Q 48.828125 37.15625 52.796875 32.3125 
Q 56.78125 27.484375 56.78125 20.515625 
Q 56.78125 9.90625 50.3125 4.234375 
Q 43.84375 -1.421875 31.78125 -1.421875 
Q 19.734375 -1.421875 13.25 4.234375 
Q 6.78125 9.90625 6.78125 20.515625 
Q 6.78125 27.484375 10.78125 32.3125 
Q 14.796875 37.15625 21.921875 38.8125 
z
M 18.3125 54.390625 
Q 18.3125 48.734375 21.84375 45.5625 
Q 25.390625 42.390625 31.78125 42.390625 
Q 38.140625 42.390625 41.71875 45.5625 
Q 45.3125 48.734375 45.3125 54.390625 
Q 45.3125 60.0625 41.71875 63.234375 
Q 38.140625 66.40625 31.78125 66.40625 
Q 25.390625 66.40625 21.84375 63.234375 
Q 18.3125 60.0625 18.3125 54.390625 
z
" id="DejaVuSans-56"/>
   </defs>
   <g transform="translate(336.970312 14.878125)scale(0.12 -0.12)">
    <use xlink:href="#DejaVuSans-89"/>
    <use x="60.880859" xlink:href="#DejaVuSans-101"/>
    <use x="122.404297" xlink:href="#DejaVuSans-97"/>
    <use x="183.683594" xlink:href="#DejaVuSans-114"/>
    <use x="224.796875" xlink:href="#DejaVuSans-32"/>
    <use x="256.583984" xlink:href="#DejaVuSans-57"/>
    <use x="320.207031" xlink:href="#DejaVuSans-56"/>
   </g>
  </g>
 </g>
 <defs>
  <clipPath id="pe9f201e69a">
   <rect height="87.8816" width="310.295" x="40.12" y="32.64"/>
  </clipPath>
  <clipPath id="p9810b81543">
   <rect height="87.8816" width="310.295" x="398.905" y="32.64"/>
  </clipPath>
  <clipPath id="p06ca2c8cdd">
   <rect height="87.8816" width="310.295" x="40.12" y="164.4624"/>
  </clipPath>
  <clipPath id="pb27c6469bd">
   <rect height="87.8816" width="310.295" x="398.905" y="164.4624"/>
  </clipPath>
 </defs>
</svg>
